<svg xmlns="http://www.w3.org/2000/svg" xmlns:xlink="http://www.w3.org/1999/xlink" width="412" height="238" viewBox="0 0 412 238"><defs><style>.a{fill:#8ac7c8;}.b{fill:#f5dbb2;}.c{fill:#d6aa7c;}.d,.g{fill:#fff;}.d{fill-rule:evenodd;}.e{clip-path:url(#a);}.f{fill:#a0d1d7;}.h{clip-path:url(#b);}.i{fill:#e9d1a4;}</style><clipPath id="a"><path class="a" d="M0,126.257S22.267,94.08,72.078,108c57.714,16.129,68.877-50.035,101.09-63.426s63.579,23.674,101.726-10.45S328.174,0,328.174,0H0Z"/></clipPath><clipPath id="b"><rect class="b" width="412" height="238" transform="translate(998 693)"/></clipPath></defs><g transform="translate(-998 -693)"><rect class="b" width="412" height="238" transform="translate(998 693)"/><g transform="translate(998 693)"><path class="c" d="M0,181s6.625-31.925,35.275-42.493,40.849-1.241,74.728-13.3,36.673-32.6,75.721-45.1,47.491-5.76,64.717-11.5S334.666,12.516,411.218,0H247.167C245.444,0,0,86.688,0,86.688Z" transform="translate(0)"/><path class="d" d="M0,173.376s14.4-42.934,42.457-45.982c29.711-3.227,40.877,10.822,73.188-3.29s33.956-44.69,69.708-56.041,47.942,26.065,98.967-20.2C334.777,2.111,411.218,0,411.218,0H200.406L0,94.346Z" transform="translate(0)"/><g transform="translate(0)"><path class="a" d="M0,126.257S22.267,94.08,72.078,108c57.714,16.129,68.877-50.035,101.09-63.426s63.579,23.674,101.726-10.45S328.174,0,328.174,0H0Z"/><g class="e"><path class="f" d="M-9.776,121.841S7.03,100.253,33.179,95.23c32.159-6.176,42.179,10.279,66.1,5.372S139.3,42.625,169.96,34.887c39.571-9.987,51.189,14.244,76.042,6.6,36.5-11.222,29.339-39.654,70.661-52.463l36.363,4.128-14.463,37.19L284.431,97.288,51.787,148.941l-59.5,2.893Z" transform="translate(1.736 1.948)"/></g></g><path class="g" d="M34.982,100.706a1.267,1.267,0,1,1-1.267-1.267A1.267,1.267,0,0,1,34.982,100.706Z" transform="translate(-5.762 -17.657)"/><path class="g" d="M295.061,30.684a1.267,1.267,0,1,1-1.267-1.267A1.267,1.267,0,0,1,295.061,30.684Z" transform="translate(-51.942 -5.223)"/><path class="g" d="M184.7,38.487a3.263,3.263,0,1,1-3.263-3.263A3.262,3.262,0,0,1,184.7,38.487Z" transform="translate(-31.638 -6.255)"/></g><g class="h"><g transform="translate(1160.038 646.043)"><g transform="translate(122.297 122.695)"><path class="c" d="M180.506,176.028c-1.3,2.31-8.012-3.008-10.413-1.938s-2.933,9.619-5.519,9.041.218-8.617-1.565-10.622-9.966-.011-10.264-2.677,8.146-2.317,9.444-4.626-3.227-9.625-.825-10.7,4.817,7.185,7.4,7.762,7.971-5.937,9.755-3.933-5.169,6.758-4.87,9.424S181.805,173.718,180.506,176.028Z" transform="translate(-152.736 -154.415)"/><g transform="translate(0.949 1.316)"><path class="i" d="M166.472,156.691a.685.685,0,1,1-.9-.35A.686.686,0,0,1,166.472,156.691Z" transform="translate(-157.352 -156.282)"/><path class="i" d="M168.381,160.9a.686.686,0,1,1-.9-.35A.686.686,0,0,1,168.381,160.9Z" transform="translate(-157.915 -157.525)"/><path class="i" d="M170.126,164.847a.686.686,0,1,1-.9-.35A.685.685,0,0,1,170.126,164.847Z" transform="translate(-158.431 -158.69)"/><path class="i" d="M171.9,168.85a.686.686,0,1,1-.9-.35A.686.686,0,0,1,171.9,168.85Z" transform="translate(-158.953 -159.872)"/><path class="i" d="M176.412,170.044a.686.686,0,1,1-.9-.35A.685.685,0,0,1,176.412,170.044Z" transform="translate(-160.286 -160.224)"/><path class="i" d="M169.924,172.914a.686.686,0,1,1-.9-.35A.686.686,0,0,1,169.924,172.914Z" transform="translate(-158.371 -161.071)"/><path class="i" d="M180.412,167.212a.686.686,0,1,1-.9-.35A.686.686,0,0,1,180.412,167.212Z" transform="translate(-161.467 -159.388)"/><path class="i" d="M184.238,163.991a.686.686,0,1,1-.9-.35A.686.686,0,0,1,184.238,163.991Z" transform="translate(-162.597 -158.437)"/><path class="i" d="M187.794,160.757a.686.686,0,1,1-.9-.35A.686.686,0,0,1,187.794,160.757Z" transform="translate(-163.646 -157.482)"/><path class="i" d="M163.884,174.521a.686.686,0,1,0,.349-.9A.684.684,0,0,0,163.884,174.521Z" transform="translate(-156.958 -161.382)"/><path class="i" d="M158.925,175.184a.686.686,0,1,0,.35-.9A.685.685,0,0,0,158.925,175.184Z" transform="translate(-155.495 -161.578)"/><path class="i" d="M154.141,175.638a.686.686,0,1,0,.35-.9A.686.686,0,0,0,154.141,175.638Z" transform="translate(-154.082 -161.712)"/><path class="i" d="M177.417,174.721a.686.686,0,1,1-.9-.35A.686.686,0,0,1,177.417,174.721Z" transform="translate(-160.583 -161.605)"/><path class="i" d="M172.708,176.8a.686.686,0,1,1-.9-.35A.686.686,0,0,1,172.708,176.8Z" transform="translate(-159.193 -162.22)"/><path class="i" d="M181.1,177.346a.685.685,0,1,1-.9-.35A.684.684,0,0,1,181.1,177.346Z" transform="translate(-161.671 -162.379)"/><path class="i" d="M185.506,179.786a.686.686,0,1,1-.9-.35A.686.686,0,0,1,185.506,179.786Z" transform="translate(-162.971 -163.1)"/><path class="i" d="M189.557,182.012a.686.686,0,1,1-.9-.35A.685.685,0,0,1,189.557,182.012Z" transform="translate(-164.167 -163.757)"/><path class="i" d="M170.914,181.851a.685.685,0,1,0,.35-.9A.686.686,0,0,0,170.914,181.851Z" transform="translate(-159.034 -163.546)"/><path class="i" d="M169.756,186.75a.686.686,0,1,0,.35-.9A.687.687,0,0,0,169.756,186.75Z" transform="translate(-158.692 -164.992)"/><path class="i" d="M168.678,191.245a.685.685,0,1,0,.35-.9A.685.685,0,0,0,168.678,191.245Z" transform="translate(-158.374 -166.319)"/><g transform="translate(12.969 11.363)"><path class="i" d="M173.8,172.813a.686.686,0,1,1-.9-.35A.685.685,0,0,1,173.8,172.813Z" transform="translate(-172.483 -172.404)"/></g></g></g><g transform="translate(282.265 245.93)"><path class="c" d="M394.281,357.454c-2.7.063-1.532-8.591-3.72-10.14s-9.961,2.434-10.8-.134,7.67-4.294,8.5-6.9-5.178-8.745-3-10.394,6.272,5.937,8.974,5.874,6.761-7.839,8.949-6.29-3.793,7.964-2.954,10.532,9.356,3.9,8.527,6.508-8.617-1.016-10.8.634S396.983,357.392,394.281,357.454Z" transform="translate(-379.701 -329.264)"/><g transform="translate(1.794 1.112)"><path class="i" d="M411.53,332.087a.7.7,0,1,1-.164-.975A.7.7,0,0,1,411.53,332.087Z" transform="translate(-390.516 -330.884)"/><path class="i" d="M408.833,335.951a.7.7,0,1,1-.164-.975A.7.7,0,0,1,408.833,335.951Z" transform="translate(-389.72 -332.024)"/><path class="i" d="M406.28,339.536a.7.7,0,1,1-.164-.975A.7.7,0,0,1,406.28,339.536Z" transform="translate(-388.966 -333.083)"/><path class="i" d="M403.69,343.173a.7.7,0,1,1-.164-.975A.7.7,0,0,1,403.69,343.173Z" transform="translate(-388.202 -334.156)"/><path class="i" d="M404.994,347.754a.7.7,0,1,1-.164-.975A.7.7,0,0,1,404.994,347.754Z" transform="translate(-388.587 -335.509)"/><path class="i" d="M399.1,343.557a.7.7,0,1,1-.164-.975A.7.7,0,0,1,399.1,343.557Z" transform="translate(-386.847 -334.27)"/><path class="i" d="M409.559,349.787a.7.7,0,1,1-.164-.975A.7.7,0,0,1,409.559,349.787Z" transform="translate(-389.934 -336.109)"/><path class="i" d="M414.375,351.466a.7.7,0,1,1-.164-.975A.7.7,0,0,1,414.375,351.466Z" transform="translate(-391.356 -336.604)"/><path class="i" d="M419.062,352.9a.7.7,0,1,1-.164-.975A.7.7,0,0,1,419.062,352.9Z" transform="translate(-392.74 -337.028)"/><path class="i" d="M394.548,339.1a.7.7,0,1,0,.975-.164A.7.7,0,0,0,394.548,339.1Z" transform="translate(-385.84 -333.193)"/><path class="i" d="M391.385,335.1a.7.7,0,1,0,.975-.164A.7.7,0,0,0,391.385,335.1Z" transform="translate(-384.906 -332.011)"/><path class="i" d="M388.5,331.135a.7.7,0,1,0,.975-.164A.7.7,0,0,0,388.5,331.135Z" transform="translate(-384.053 -330.842)"/><path class="i" d="M401.415,351.069a.7.7,0,1,1-.164-.975A.7.7,0,0,1,401.415,351.069Z" transform="translate(-387.531 -336.487)"/><path class="i" d="M397.138,348.023a.7.7,0,1,1-.164-.975A.7.7,0,0,1,397.138,348.023Z" transform="translate(-386.268 -335.588)"/><path class="i" d="M401.033,355.668a.7.7,0,1,1-.164-.975A.7.7,0,0,1,401.033,355.668Z" transform="translate(-387.418 -337.845)"/><path class="i" d="M401.184,360.8a.7.7,0,1,1-.164-.975A.7.7,0,0,1,401.184,360.8Z" transform="translate(-387.462 -339.359)"/><path class="i" d="M401.34,365.51a.7.7,0,1,1-.164-.975A.7.7,0,0,1,401.34,365.51Z" transform="translate(-387.508 -340.75)"/><path class="i" d="M391.779,349.078a.7.7,0,1,0,.975-.164A.7.7,0,0,0,391.779,349.078Z" transform="translate(-385.022 -336.139)"/><path class="i" d="M386.88,350.613a.7.7,0,1,0,.975-.164A.7.7,0,0,0,386.88,350.613Z" transform="translate(-383.576 -336.592)"/><path class="i" d="M382.377,352.007a.7.7,0,1,0,.975-.164A.7.7,0,0,0,382.377,352.007Z" transform="translate(-382.247 -337.003)"/><g transform="translate(12.467 10.539)"><path class="i" d="M401.2,346.9a.7.7,0,1,1-.164-.975A.7.7,0,0,1,401.2,346.9Z" transform="translate(-399.935 -345.795)"/></g></g></g><g transform="translate(49.62 46.957)"><path class="c" d="M63.588,203.066a2.916,2.916,0,1,1-2.916-2.916A2.916,2.916,0,0,1,63.588,203.066Z" transform="translate(-52.022 -92.178)"/><path class="c" d="M457.429,256.257a2.916,2.916,0,1,1-2.916-2.917A2.916,2.916,0,0,1,457.429,256.257Z" transform="translate(-168.279 -107.879)"/><path class="c" d="M227.2,137.55a2.916,2.916,0,1,1-2.917-2.916A2.917,2.917,0,0,1,227.2,137.55Z" transform="translate(-100.318 -72.838)"/><path class="c" d="M199.864,336.245a2.916,2.916,0,1,1-2.916-2.917A2.916,2.916,0,0,1,199.864,336.245Z" transform="translate(-92.249 -131.49)"/><circle class="c" cx="1.262" cy="1.262" r="1.262" transform="translate(296.818 212.441)"/><path class="c" d="M452.5,364.871a1.262,1.262,0,1,1-1.262-1.262A1.262,1.262,0,0,1,452.5,364.871Z" transform="translate(-167.801 -140.429)"/><path class="c" d="M463.582,433.672a1.262,1.262,0,1,1-1.262-1.263A1.262,1.262,0,0,1,463.582,433.672Z" transform="translate(-171.072 -160.738)"/><path class="c" d="M52.145,217.9a1.262,1.262,0,1,1-1.262-1.262A1.262,1.262,0,0,1,52.145,217.9Z" transform="translate(-49.62 -97.043)"/><circle class="c" cx="1.262" cy="1.262" r="1.262" transform="translate(16.064 120.852)"/><path class="c" d="M440.461,266a1.263,1.263,0,1,1-1.262-1.262A1.262,1.262,0,0,1,440.461,266Z" transform="translate(-164.246 -111.243)"/><circle class="c" cx="1.262" cy="1.262" r="1.262" transform="translate(289.15 162.48)"/><path class="c" d="M440.8,48.219a1.262,1.262,0,1,1-1.262-1.262A1.262,1.262,0,0,1,440.8,48.219Z" transform="translate(-164.347 -46.957)"/><circle class="c" cx="1.262" cy="1.262" r="1.262" transform="translate(282.711 7.724)"/><circle class="c" cx="1.262" cy="1.262" r="1.262" transform="translate(24.154 171.766)"/><circle class="c" cx="1.262" cy="1.262" r="1.262" transform="translate(130.747 277.127)"/><path class="c" d="M213.077,354.6a1.262,1.262,0,1,1-1.262-1.262A1.262,1.262,0,0,1,213.077,354.6Z" transform="translate(-97.125 -137.398)"/><circle class="c" cx="1.262" cy="1.262" r="1.262" transform="translate(204.957 276.788)"/><circle class="c" cx="1.262" cy="1.262" r="1.262" transform="translate(179.531 207.022)"/><path class="c" d="M246.336,142.38a1.262,1.262,0,1,1-1.262-1.262A1.262,1.262,0,0,1,246.336,142.38Z" transform="translate(-106.943 -74.752)"/></g></g></g></g></svg>