<svg xmlns="http://www.w3.org/2000/svg" width="39.265" height="40.482" viewBox="0 0 39.265 40.482"><defs><style>.a{fill:#fff;stroke:rgba(0,0,0,0);stroke-miterlimit:10;}</style></defs><g transform="translate(1.175 0.501)"><g transform="translate(0 -0.001)"><path class="a" d="M.469,19.739a19.941,19.941,0,0,1,.268-3.234,11.056,11.056,0,0,1,1.392,4.02h.007a.292.292,0,0,0,.056.148.331.331,0,0,0,.268.132.313.313,0,0,0,.162-.041,11.925,11.925,0,0,1,7.046-.931v.021a7.657,7.657,0,0,1,.8.132c.039.011.078.018.116.027.109.026.219.053.324.081l.007,0a6.816,6.816,0,0,1,1.8.779,14.936,14.936,0,0,1,1.382,1,10.944,10.944,0,0,0,1.752,1.205c2.122,1.094,4.579.881,6.715.593,5.157-.689,8.28-.525,11.078.732-.363.067-.754.151-1.167.253-2.471-.864-5.354-.924-9.823-.33a16.974,16.974,0,0,1-4.48.145l0-.014a8.1,8.1,0,0,1-3.257-1.205c-.416-.286-.867-.619-1.346-.954a13.606,13.606,0,0,0-1.2-.869,6.553,6.553,0,0,0-2.393-.87q-.09-.021-.18-.032L9.517,20.5a12.24,12.24,0,0,0-6.535.956A2.96,2.96,0,0,0,1.424,22.8c.063.4.137.794.222,1.182a.26.26,0,0,0,.056-.119,2.478,2.478,0,0,1,1.963-1.89,1.564,1.564,0,0,1,.25-.017c1.146.035,1.653,1.479,1.854,2.34a10.984,10.984,0,0,1,.056,3.384c-.053.619-.109,1.263-.106,1.89a10.562,10.562,0,0,0,.363,2.908A17.567,17.567,0,0,0,7.37,33.76a7.6,7.6,0,0,1-.983-4.188c0-.6.049-1.228.1-1.834a11.371,11.371,0,0,0-.07-3.591,3.778,3.778,0,0,0-1.6-2.614,8.352,8.352,0,0,1,4.4,1.31,7.948,7.948,0,0,1,1.509,1.409,5.98,5.98,0,0,0,.444.627,8.151,8.151,0,0,0,.849.892,7.359,7.359,0,0,0,1.315,1.187,9.9,9.9,0,0,0,3.19,1.376,7.418,7.418,0,0,0,1.311.256,9.118,9.118,0,0,0,3.99-.606A28.387,28.387,0,0,0,24.49,26.73a11.4,11.4,0,0,1,2.735-.889,15.025,15.025,0,0,1,2.044-.321l.916-.094c.032,0,.1-.011.18-.015a9.219,9.219,0,0,0-1.6,1,3.022,3.022,0,0,0-1.445,2.275,3.994,3.994,0,0,0,.2,1,2.748,2.748,0,0,1,.067,1.791,5.11,5.11,0,0,1-.437,1.02,2.73,2.73,0,0,0-.412,1.269h0c-4.97,1.3-9.066,1.015-12.178-.84A10.991,10.991,0,0,1,9.767,26.7a.333.333,0,0,0-.649.151,11.438,11.438,0,0,0,5.09,6.642,13.125,13.125,0,0,0,6.849,1.739,23.352,23.352,0,0,0,5.788-.8,3.649,3.649,0,0,0,.226.552c.145.288.286.536.409.756a3.039,3.039,0,0,1,.567,2.211A19.917,19.917,0,0,1,.469,19.739ZM28.956,37.845a.332.332,0,0,1-.222-.113,3.7,3.7,0,0,0-.673-2.319c-.12-.213-.254-.452-.395-.729a1.642,1.642,0,0,1,.081-1.878,5.641,5.641,0,0,0,.486-1.141,3.375,3.375,0,0,0-.067-2.162,3.338,3.338,0,0,1-.176-.837,1.3,1.3,0,0,1,.085-.482,3.978,3.978,0,0,1,1.3-1.354A9.533,9.533,0,0,1,32.244,25.4c.342-.088.666-.164.973-.231.113-.024.226-.046.342-.062l-.011-.008c.166-.027.328-.059.486-.084a1.758,1.758,0,0,1,1.174.231c.1.062.2.122.3.189a3.19,3.19,0,0,1,1.315,2.12,3.38,3.38,0,0,1-1.16,2.692.35.35,0,0,1-.24.1.322.322,0,0,1-.1-.018L28.846,28.3c-.021-.008-.042-.018-.063-.027a1.15,1.15,0,0,0-.219.689,2.822,2.822,0,0,0,.176.776,2.992,2.992,0,0,1,.067,2.054,5.175,5.175,0,0,1-.5,1.082,1.414,1.414,0,0,0-.081,1.729c.141.259.278.482.4.685a3.35,3.35,0,0,1,.684,2.251.33.33,0,0,1-.331.3Zm5.284-12.157a10.622,10.622,0,0,0-1.4.242,8.814,8.814,0,0,0-3.077,1.43c-.166.12-.331.245-.486.382l6.045,1.9a2.642,2.642,0,0,0,.835-2.009,2.541,2.541,0,0,0-1.022-1.645l-.229-.143a1.034,1.034,0,0,0-.554-.164A.978.978,0,0,0,34.239,25.688ZM0,14.455c.786-.03,1.7-.157,2.08-.21,8.382-1.263,10.75-.415,11.378,0a11.106,11.106,0,0,1-1.579.732,12.768,12.768,0,0,1-7.448.347.35.35,0,0,0-.321.09.345.345,0,0,0-.078.32,4.641,4.641,0,0,1-1.361,4.048A10.178,10.178,0,0,0,0,14.455ZM11.674,19.63a13.086,13.086,0,0,0-8.022,0,5.363,5.363,0,0,0,1.1-3.558,12.436,12.436,0,0,0,9.912-1.809v.006c0,.015,0,.021,0,.032l0-.006a8.272,8.272,0,0,1-2.707,5.416C11.818,19.669,11.674,19.63,11.674,19.63Zm8.678-10.5a10.677,10.677,0,0,0-5.819,1.713A25.665,25.665,0,0,1,29.886,2.413,19.9,19.9,0,0,1,37.4,9.57l-7.973,4.57A10.686,10.686,0,0,0,20.352,9.133Zm0-9.133a19.94,19.94,0,0,1,7.522,1.462,27.163,27.163,0,0,0-16.64,11.53,40.394,40.394,0,0,0-9.252.595c-.176.032-.36.053-.543.078A19.873,19.873,0,0,1,20.352,0Z" transform="translate(0)"/></g></g></svg>