<?xml version="1.0" encoding="utf-8"?>
<!-- Generator: Adobe Illustrator 25.0.1, SVG Export Plug-In . SVG Version: 6.00 Build 0)  -->
<svg version="1.1" id="图层_1" xmlns="http://www.w3.org/2000/svg" xmlns:xlink="http://www.w3.org/1999/xlink" x="0px" y="0px"
	 viewBox="0 0 74.9 73" style="enable-background:new 0 0 74.9 73;" xml:space="preserve">
<style type="text/css">
	.st0{fill-rule:evenodd;clip-rule:evenodd;fill:#252D43;}
</style>
<g>
	<path class="st0" d="M26.4,0.2c1.9,0,3.5,1.6,3.5,3.5v8.2c0,1.9-1.6,3.5-3.5,3.5h-7.7c-1.9,0-3.5,1.6-3.5,3.5v50.6
		c0,1.9-1.6,3.5-3.5,3.5H3.6c-1.9,0-3.5-1.6-3.5-3.5V18.8c0-1.9,1.6-3.5,3.5-3.5h7.7c1.9,0,3.5-1.6,3.5-3.5V3.6
		c0-1.9,1.6-3.5,3.5-3.5L26.4,0.2z M56.7,0.2c1.9,0,3.5,1.6,3.5,3.5v8.2c0,1.9,1.6,3.5,3.5,3.5h7.7c1.9,0,3.5,1.6,3.5,3.5v50.6
		c0,1.9-1.6,3.5-3.5,3.5h-8.2c-1.9,0-3.5-1.6-3.5-3.5V18.8c0-1.9-1.6-3.5-3.5-3.5h-7.7c-1.9,0-3.5-1.6-3.5-3.5V3.6
		c0-1.9,1.6-3.5,3.5-3.5L56.7,0.2z M41.6,29.1c1.9,0,3.5,1.6,3.5,3.5v22.5c0,1.9-1.6,3.5-3.5,3.5h-8.2c-1.9,0-3.5-1.6-3.5-3.5V32.6
		c0-1.9,1.6-3.5,3.5-3.5L41.6,29.1z"/>
</g>
</svg>
