<svg xmlns="http://www.w3.org/2000/svg" width="44.263" height="47.762" viewBox="0 0 44.263 47.762"><defs><style>.a{fill:#4b45ff;}</style></defs><g transform="translate(-1040.871 -1130)"><g transform="translate(1040.871 1130)"><g transform="translate(0 0)"><path class="a" d="M180.034,1046.2a12.643,12.643,0,0,1,17.629,3.928l9.435-5.447a23.642,23.642,0,0,0-8.892-8.532A30.308,30.308,0,0,0,180.034,1046.2Z" transform="translate(-162.835 -1033.273)"/><path class="a" d="M141.153,1072.5a.394.394,0,0,1,.472-.489,15.035,15.035,0,0,0,8.818-.414,12.888,12.888,0,0,0,1.865-.871c-.742-.5-3.546-1.506-13.464,0-.444.065-1.533.216-2.461.251a12.169,12.169,0,0,1,3.162,6.35A5.565,5.565,0,0,0,141.153,1072.5Z" transform="translate(-136.383 -1053.462)"/><path class="a" d="M141.342,1045.046a47.22,47.22,0,0,1,10.949-.711,32.416,32.416,0,0,1,10.912-10.3,32.051,32.051,0,0,1,8.785-3.443,23.542,23.542,0,0,0-31.29,14.543C140.917,1045.106,141.133,1045.077,141.342,1045.046Z" transform="translate(-138.998 -1028.845)"/><path class="a" d="M229.855,1107.546a3.819,3.819,0,0,0-1.557-2.53c-.118-.076-.236-.15-.353-.223a2.059,2.059,0,0,0-1.393-.273c-.186.03-.376.064-.572.1l.012.006c-.138.021-.272.047-.406.073-.363.079-.745.172-1.151.28a11.242,11.242,0,0,0-3.4,1.694,4.723,4.723,0,0,0-1.533,1.617,1.431,1.431,0,0,0-.1.573,3.935,3.935,0,0,0,.206,1,4.063,4.063,0,0,1,.08,2.575,6.864,6.864,0,0,1-.576,1.362,1.973,1.973,0,0,0-.1,2.24c.165.327.326.615.468.869a4.445,4.445,0,0,1,.795,2.765.394.394,0,0,0,.266.132h.03a.4.4,0,0,0,.393-.364,4.022,4.022,0,0,0-.809-2.683c-.144-.239-.307-.51-.474-.815a1.7,1.7,0,0,1,.1-2.063,6.276,6.276,0,0,0,.587-1.288,3.6,3.6,0,0,0-.082-2.449,3.439,3.439,0,0,1-.207-.927,1.368,1.368,0,0,1,.26-.821.325.325,0,0,0,.073.031l7.666,2.427a.411.411,0,0,0,.119.018.393.393,0,0,0,.284-.121A4.051,4.051,0,0,0,229.855,1107.546Zm-1.776,2.483-7.154-2.264c.184-.161.383-.312.578-.456a10.443,10.443,0,0,1,3.641-1.705,12.464,12.464,0,0,1,1.655-.29,1.234,1.234,0,0,1,.79.187q.137.084.273.173a3.057,3.057,0,0,1,1.211,1.961A3.17,3.17,0,0,1,228.079,1110.028Z" transform="translate(-186.272 -1073.996)"/><path class="a" d="M148.814,1083.6c.07.011.14.021.209.034a7.8,7.8,0,0,1,2.834,1.042,15.917,15.917,0,0,1,1.424,1.036c.567.4,1.1.8,1.595,1.138a9.54,9.54,0,0,0,3.851,1.437l.007.011a19.833,19.833,0,0,0,5.3-.167c5.288-.713,8.7-.642,11.628.39.489-.122.948-.223,1.38-.3-3.311-1.5-7.009-1.7-13.114-.873-2.527.342-5.434.6-7.948-.709a13.138,13.138,0,0,1-2.073-1.438,17.964,17.964,0,0,0-1.636-1.2,8.155,8.155,0,0,0-2.125-.928l-.012,0c-.124-.034-.252-.065-.38-.1l-.142-.033c-.3-.066-.617-.122-.94-.162v-.022a14.032,14.032,0,0,0-8.34,1.111.393.393,0,0,1-.509-.111.387.387,0,0,1-.067-.175h-.005a13.331,13.331,0,0,0-1.648-4.795,23.544,23.544,0,0,0,32.322,25.564,3.663,3.663,0,0,0-.671-2.637c-.146-.261-.312-.556-.484-.9a4.123,4.123,0,0,1-.268-.662,27.277,27.277,0,0,1-6.848.963,15.438,15.438,0,0,1-8.108-2.076,13.641,13.641,0,0,1-6.024-7.916.395.395,0,0,1,.768-.179,13.087,13.087,0,0,0,5.674,7.427c3.683,2.212,8.532,2.548,14.413,1h0a3.274,3.274,0,0,1,.488-1.514,6.145,6.145,0,0,0,.517-1.214,3.308,3.308,0,0,0-.077-2.134,4.631,4.631,0,0,1-.238-1.194c-.05-1.313,1.1-2.224,1.71-2.712a10.734,10.734,0,0,1,1.889-1.2c-.094,0-.178.012-.212.016-.358.039-.722.076-1.087.114a17.684,17.684,0,0,0-2.42.384,13.433,13.433,0,0,0-3.235,1.058,33.705,33.705,0,0,1-3.159,1.5,10.828,10.828,0,0,1-4.723.722,8.745,8.745,0,0,1-1.552-.3,11.62,11.62,0,0,1-3.775-1.639,8.792,8.792,0,0,1-1.558-1.417,9.786,9.786,0,0,1-1-1.061,7,7,0,0,1-.525-.75,9.588,9.588,0,0,0-1.787-1.681,9.848,9.848,0,0,0-5.2-1.561,4.516,4.516,0,0,1,1.9,3.117,13.757,13.757,0,0,1,.083,4.282c-.061.723-.125,1.47-.123,2.183a9.1,9.1,0,0,0,1.166,5q-.8-.729-1.524-1.527a12.721,12.721,0,0,1-.431-3.468c0-.748.063-1.513.126-2.253a13.179,13.179,0,0,0-.065-4.036c-.237-1.026-.838-2.75-2.2-2.789a1.784,1.784,0,0,0-.3.018,2.95,2.95,0,0,0-2.325,2.255.372.372,0,0,1-.063.143q-.155-.7-.264-1.41a3.481,3.481,0,0,1,1.844-1.6,14.348,14.348,0,0,1,7.733-1.143" transform="translate(-137.233 -1058.42)"/><path class="a" d="M160.378,1072.049a.3.3,0,0,0,0-.037s0-.007,0-.011a14.632,14.632,0,0,1-11.731,2.158,6.414,6.414,0,0,1-1.309,4.24,15.382,15.382,0,0,1,9.5,0v0s.17.045.337.1a9.883,9.883,0,0,0,3.2-6.453Z" transform="translate(-143.023 -1054.707)"/></g></g></g></svg>