<svg xmlns="http://www.w3.org/2000/svg" width="13.815" height="14.471" viewBox="0 0 13.815 14.471"><defs><style>.a{fill:#fff;}</style></defs><g transform="translate(-3 -2.001)"><path class="a" d="M-9396.091-7216.691a1.316,1.316,0,0,1-1.315-1.316v-3.618a1.316,1.316,0,0,1,1.315-1.316h1.838l1.322-3.7a2.434,2.434,0,0,1-1.186-2.089,2.436,2.436,0,0,1,2.434-2.434h2.368a2.436,2.436,0,0,1,2.434,2.434,2.435,2.435,0,0,1-1.187,2.089l1.321,3.7h1.839a1.318,1.318,0,0,1,1.316,1.316v3.618a1.318,1.318,0,0,1-1.316,1.316Zm0-1.316h11.184v-1.644h-11.185Zm0-2.96h11.186v-.658h-11.186Zm7.95-1.974-1.177-3.288h-2.361l-1.174,3.288Zm-4.66-5.788a1.121,1.121,0,0,0,1.12,1.118h2.368a1.12,1.12,0,0,0,1.117-1.118,1.12,1.12,0,0,0-1.117-1.12h-2.368A1.121,1.121,0,0,0-9392.8-7228.729Z" transform="translate(9400.406 7233.163)"/></g></svg>