<svg xmlns="http://www.w3.org/2000/svg" width="15.17" height="16.2" viewBox="0 0 15.17 16.2"><defs><style>.a{fill:#383838;}</style></defs><g transform="translate(-95.9 -95.9)"><path class="a" d="M105.354,110.769H97.436a.194.194,0,0,1-.205-.205V97.436a.194.194,0,0,1,.205-.205h5.949v3.077a1.454,1.454,0,0,0,1.436,1.436H107.9v.738a.615.615,0,0,0,1.231,0V99.9a.86.86,0,0,0-.164-.451l-3.282-3.282a.617.617,0,0,0-.451-.164H97.436A1.454,1.454,0,0,0,96,97.436v13.128A1.454,1.454,0,0,0,97.436,112h7.918a.615.615,0,1,0,0-1.231Zm2.544-10.585v.328h-3.077a.194.194,0,0,1-.205-.205V97.231h.369Z"/><path class="a" d="M105.354,112.1H97.436a1.556,1.556,0,0,1-1.536-1.536V97.436A1.556,1.556,0,0,1,97.436,95.9h7.795a.708.708,0,0,1,.522.193l3.295,3.3a.932.932,0,0,1,.181.507v2.585a.715.715,0,0,1-1.431,0v-.638h-2.977a1.556,1.556,0,0,1-1.536-1.536V97.331H97.436a.1.1,0,0,0-.105.105v13.128a.1.1,0,0,0,.105.105h7.918a.715.715,0,1,1,0,1.431Zm-7.918-16A1.354,1.354,0,0,0,96.1,97.436v13.128a1.354,1.354,0,0,0,1.336,1.336h7.918a.515.515,0,1,0,0-1.031H97.436a.292.292,0,0,1-.305-.305V97.436a.292.292,0,0,1,.305-.305h6.049v3.177a1.354,1.354,0,0,0,1.336,1.336H108v.838a.515.515,0,0,0,1.031,0V99.9a.764.764,0,0,0-.142-.388l-3.275-3.275a.517.517,0,0,0-.381-.135ZM108,100.613h-3.177a.292.292,0,0,1-.305-.305V97.131h.511L108,100.144Zm-3.282-3.282v2.977a.1.1,0,0,0,.105.105H107.8v-.187l-2.855-2.895Z"/><path class="a" d="M487.426,555.836l-2.051-2.051a.609.609,0,0,0-.862.862l.985.985h-4.882a.631.631,0,0,0-.615.615.669.669,0,0,0,.615.656H485.5l-.985.985a.6.6,0,0,0,0,.861.7.7,0,0,0,.9,0l2.051-2.051A.743.743,0,0,0,487.426,555.836Z" transform="translate(-376.615 -448.8)"/><path class="a" d="M484.944,553.5a.708.708,0,0,1,.5.214l2.057,2.058a.84.84,0,0,1,.042.988l-.007.008-2.051,2.051a.724.724,0,1,1-1.044-1l.814-.814h-4.641a.766.766,0,0,1-.715-.756.734.734,0,0,1,.715-.715h4.641l-.814-.814a.715.715,0,0,1,.5-1.217Zm2.408,2.4-2.048-2.048a.509.509,0,1,0-.72.72l1.155,1.155h-5.123a.529.529,0,0,0-.515.515.566.566,0,0,0,.515.556h5.123l-1.155,1.155a.495.495,0,0,0,0,.72.6.6,0,0,0,.761,0l2.047-2.047A.646.646,0,0,0,487.352,555.9Z" transform="translate(-376.615 -448.8)"/></g></svg>