<svg xmlns="http://www.w3.org/2000/svg" width="18" height="18" viewBox="0 0 18 18"><defs><style>.a{fill:#0112ff;}</style></defs><g transform="translate(-63 -65.09)"><path class="a" d="M81,74.09a9,9,0,1,1-9-9A9,9,0,0,1,81,74.09Zm-1.636,0A7.364,7.364,0,1,0,72,81.454,7.372,7.372,0,0,0,79.364,74.09Z" transform="translate(0)"/><path class="a" d="M315.056,74.09c0,4.971-1.842,9-4.113,9s-4.113-4.029-4.113-9,1.841-9,4.113-9S315.056,69.119,315.056,74.09Zm-1.645,0c0-4.783-1.751-7.364-2.468-7.364s-2.468,2.581-2.468,7.364,1.751,7.364,2.468,7.364S313.411,78.873,313.411,74.09Z" transform="translate(-238.943)"/><path class="a" d="M144.27,308.78h14.71v1.644H144.27Zm0,5.755h14.71v1.644H144.27Z" transform="translate(-79.625 -238.797)"/></g></svg>