<svg xmlns="http://www.w3.org/2000/svg" xmlns:xlink="http://www.w3.org/1999/xlink" width="24" height="24" viewBox="0 0 24 24"><defs><style>.a{fill:#fff;stroke:#707070;}.b{clip-path:url(#a);}.c{fill:#21325b;}.d{fill:#979695;}</style><clipPath id="a"><circle class="a" cx="12" cy="12" r="12" transform="translate(750 453)"/></clipPath></defs><g class="b" transform="translate(-750 -453)"><g transform="translate(750 453.043)"><g transform="translate(0)"><path class="c" d="M5.1,11.527a.882.882,0,0,1,.079-.394,1.219,1.219,0,0,1,.217-.335.89.89,0,0,1,.335-.217.882.882,0,0,1,.394-.079H7.816A1.009,1.009,0,0,1,8.84,11.527v6.4q.3-.089.709-.177a.924.924,0,0,0,.473-.3.864.864,0,0,0,.177-.532V8.985a1.009,1.009,0,0,1,1.024-1.024h1.694a1.009,1.009,0,0,1,1.024,1.024v7.367s.433-.177.847-.355a.83.83,0,0,0,.374-.315.785.785,0,0,0,.138-.473V6.444A1.009,1.009,0,0,1,16.325,5.42h1.694a1.009,1.009,0,0,1,1.024,1.024v7.229A19.7,19.7,0,0,0,23.18,9.793a1.8,1.8,0,0,0,.335-.768,1.681,1.681,0,0,0-.079-.827,11.976,11.976,0,0,0-2.561-4.235,12.133,12.133,0,0,0-8.923-3.8A12.011,12.011,0,0,0,3.147,4.179,11.7,11.7,0,0,0,.685,8.473a12,12,0,0,0,1,9.632A1.472,1.472,0,0,0,2.3,18.7a1.363,1.363,0,0,0,.827.158c.315-.02.729-.059,1.2-.118a.828.828,0,0,0,.532-.276.858.858,0,0,0,.217-.571Z" transform="translate(-0.106 -0.16)"/><path class="d" d="M5.883,23.641a12.034,12.034,0,0,0,12.489.985,12.147,12.147,0,0,0,4.787-4.412,11.958,11.958,0,0,0,1.773-6.264c0-.276-.02-.552-.039-.827C20.5,19.662,12.423,22.715,5.883,23.641" transform="translate(-0.931 -2.012)"/></g></g></g></svg>