<svg xmlns="http://www.w3.org/2000/svg" width="12.546" height="12.546" viewBox="0 0 12.546 12.546"><g transform="translate(-4 -4)"><path d="M10.273,16.546H4.627A.627.627,0,0,1,4,15.919V4.627A.627.627,0,0,1,4.627,4h5.643a.627.627,0,0,1,0,1.255H5.255V15.292h5.019a.627.627,0,1,1,0,1.255Z"/><path d="M31.627,19.9a.627.627,0,0,1-.444-1.071l2.379-2.379-2.379-2.379a.627.627,0,0,1,.887-.887l2.823,2.823a.627.627,0,0,1,0,.887l-2.823,2.823A.625.625,0,0,1,31.627,19.9Z" transform="translate(-18.531 -6.177)"/><path d="M22.782,23.246H14.627a.627.627,0,1,1,0-1.255h8.155a.627.627,0,1,1,0,1.255Z" transform="translate(-6.863 -12.348)"/></g></svg>
