<svg xmlns="http://www.w3.org/2000/svg" width="60" height="60" viewBox="0 0 60 60"><defs><style>.a{fill:#6768ac;}.b{fill:#fff;}</style></defs><g transform="translate(-163 -207)"><g transform="translate(163 207)"><circle class="a" cx="30" cy="30" r="30"/></g><g transform="translate(174.029 216.826)"><g transform="translate(-0.029 0.174)"><path class="b" d="M180.034,1044.768a10.838,10.838,0,0,1,15.111,3.367l8.088-4.669a20.263,20.263,0,0,0-7.622-7.313A25.976,25.976,0,0,0,180.034,1044.768Z" transform="translate(-165.292 -1033.685)"/><path class="b" d="M140.472,1072.136a.338.338,0,0,1,.4-.419,12.891,12.891,0,0,0,7.559-.355,11.019,11.019,0,0,0,1.6-.746c-.636-.424-3.04-1.291-11.541,0-.381.056-1.314.186-2.109.215a10.433,10.433,0,0,1,2.71,5.443A4.77,4.77,0,0,0,140.472,1072.136Z" transform="translate(-136.383 -1056.057)"/><path class="b" d="M141.25,1042.732a40.537,40.537,0,0,1,9.385-.61,27.793,27.793,0,0,1,9.354-8.83,27.486,27.486,0,0,1,7.53-2.952,20.18,20.18,0,0,0-26.82,12.466C140.886,1042.784,141.071,1042.758,141.25,1042.732Z" transform="translate(-139.241 -1028.845)"/><path class="b" d="M228.263,1107.11a3.273,3.273,0,0,0-1.335-2.168c-.1-.065-.2-.129-.3-.191a1.763,1.763,0,0,0-1.194-.235q-.239.038-.491.086l.01,0c-.118.019-.233.042-.348.063-.311.067-.639.147-.986.24a9.644,9.644,0,0,0-2.915,1.452,4.05,4.05,0,0,0-1.314,1.385,1.234,1.234,0,0,0-.086.493,3.381,3.381,0,0,0,.176.857,3.483,3.483,0,0,1,.069,2.207,5.861,5.861,0,0,1-.494,1.168,1.692,1.692,0,0,0-.081,1.92c.141.281.279.527.4.745a3.812,3.812,0,0,1,.681,2.371.335.335,0,0,0,.228.113h.026a.338.338,0,0,0,.337-.312,3.448,3.448,0,0,0-.694-2.3c-.124-.2-.263-.437-.406-.7a1.452,1.452,0,0,1,.082-1.768,5.4,5.4,0,0,0,.5-1.1,3.088,3.088,0,0,0-.07-2.1,2.949,2.949,0,0,1-.177-.795,1.173,1.173,0,0,1,.223-.7.29.29,0,0,0,.063.027l6.571,2.081a.347.347,0,0,0,.1.015.337.337,0,0,0,.243-.1A3.473,3.473,0,0,0,228.263,1107.11Zm-1.522,2.128-6.133-1.94c.158-.138.328-.268.5-.392a8.967,8.967,0,0,1,3.121-1.462,10.629,10.629,0,0,1,1.418-.248,1.056,1.056,0,0,1,.677.161c.078.048.156.1.234.147a2.622,2.622,0,0,1,1.038,1.681A2.717,2.717,0,0,1,226.741,1109.238Z" transform="translate(-190.905 -1078.946)"/><path class="b" d="M147.239,1082.911c.06.009.12.017.179.029a6.675,6.675,0,0,1,2.429.893,13.367,13.367,0,0,1,1.221.888c.486.341.945.682,1.367.975a8.171,8.171,0,0,0,3.3,1.231l.006.01a17.02,17.02,0,0,0,4.545-.144c4.532-.61,7.46-.55,9.967.335q.628-.156,1.183-.257c-2.838-1.283-6.008-1.454-11.24-.749-2.166.293-4.658.511-6.812-.608a11.166,11.166,0,0,1-1.777-1.232,15.248,15.248,0,0,0-1.4-1.026,7,7,0,0,0-1.822-.8l-.01,0c-.107-.03-.216-.056-.326-.082l-.121-.029c-.26-.057-.529-.1-.806-.138v-.019a12.022,12.022,0,0,0-7.149.952.339.339,0,0,1-.436-.095.331.331,0,0,1-.057-.149h0a11.417,11.417,0,0,0-1.412-4.11,20.182,20.182,0,0,0,27.7,21.913,3.139,3.139,0,0,0-.575-2.26c-.125-.224-.267-.478-.415-.771a3.562,3.562,0,0,1-.23-.567,23.382,23.382,0,0,1-5.87.824,13.234,13.234,0,0,1-6.95-1.778,11.694,11.694,0,0,1-5.164-6.785.338.338,0,0,1,.659-.155,11.218,11.218,0,0,0,4.864,6.366c3.157,1.9,7.313,2.184,12.354.857h0a2.8,2.8,0,0,1,.418-1.3,5.292,5.292,0,0,0,.443-1.04,2.837,2.837,0,0,0-.066-1.83,3.966,3.966,0,0,1-.2-1.024,3.075,3.075,0,0,1,1.466-2.324,9.226,9.226,0,0,1,1.619-1.028c-.081,0-.152.011-.181.015-.307.033-.619.065-.932.1a15.3,15.3,0,0,0-2.074.329,11.566,11.566,0,0,0-2.773.908,28.7,28.7,0,0,1-2.708,1.282,9.271,9.271,0,0,1-4.048.619,7.482,7.482,0,0,1-1.33-.261,9.979,9.979,0,0,1-3.236-1.405,7.531,7.531,0,0,1-1.336-1.214,8.308,8.308,0,0,1-.861-.91,5.988,5.988,0,0,1-.45-.643,8.221,8.221,0,0,0-1.532-1.441,8.441,8.441,0,0,0-4.461-1.338,3.873,3.873,0,0,1,1.627,2.673,11.793,11.793,0,0,1,.071,3.671c-.053.619-.107,1.259-.1,1.871a7.8,7.8,0,0,0,1,4.283q-.687-.624-1.306-1.309a10.9,10.9,0,0,1-.369-2.972c0-.64.054-1.3.108-1.931a11.3,11.3,0,0,0-.056-3.46c-.2-.878-.718-2.357-1.882-2.392a1.6,1.6,0,0,0-.254.016,2.529,2.529,0,0,0-1.993,1.934.324.324,0,0,1-.054.122q-.133-.6-.227-1.208a2.987,2.987,0,0,1,1.58-1.372,12.3,12.3,0,0,1,6.628-.979" transform="translate(-137.312 -1061.922)"/><path class="b" d="M158.516,1072.042a.234.234,0,0,0,0-.032s0-.006,0-.009a12.54,12.54,0,0,1-10.055,1.85,5.5,5.5,0,0,1-1.122,3.634,13.183,13.183,0,0,1,8.144,0v0s.146.038.289.082a8.474,8.474,0,0,0,2.746-5.532Z" transform="translate(-143.64 -1057.426)"/></g></g></g></svg>