<svg xmlns="http://www.w3.org/2000/svg" width="18.999" height="18.999" viewBox="0 0 18.999 18.999"><path d="M82.9,64.063a.278.278,0,0,0-.307-.045L64.163,73.812a.293.293,0,0,0-.005.524l5.217,2.612a.279.279,0,0,0,.294-.029L74.74,72l-3.279,5.484a.324.324,0,0,0-.062.214l.309,5.042a.271.271,0,0,0,.152.242.18.18,0,0,0,.069.014.2.2,0,0,0,.167-.1l2.246-3.277,3.423,1.669a.277.277,0,0,0,.236,0,.287.287,0,0,0,.157-.179l4.826-16.744A.293.293,0,0,0,82.9,64.063Z" transform="translate(-63.999 -63.991)"/></svg>
