<svg xmlns="http://www.w3.org/2000/svg" width="16" height="17" viewBox="0 0 16 17"><g transform="translate(-1.319 -1.723)"><path d="M5.118,16.332A8.34,8.34,0,0,1,2.455,14.51a8.6,8.6,0,0,1-1.8-9.319,8.473,8.473,0,0,1,1.8-2.7A8.34,8.34,0,0,1,5.118.668,8.3,8.3,0,0,1,14.248,2.43a8.531,8.531,0,0,1,1.133,1.394.779.779,0,0,1-.216,1.071.755.755,0,0,1-1.055-.219,7,7,0,0,0-.928-1.142,6.789,6.789,0,0,0-9.649.049,7.025,7.025,0,0,0,0,9.836,6.789,6.789,0,0,0,9.649.049,7,7,0,0,0,.928-1.142.755.755,0,0,1,1.055-.219.779.779,0,0,1,.216,1.071,8.529,8.529,0,0,1-1.133,1.394,8.3,8.3,0,0,1-9.129,1.762Zm2.724-4.967L5.556,9.046a.781.781,0,0,1,0-1.093L7.842,5.635a.755.755,0,0,1,1.078,0,.78.78,0,0,1,0,1.093l-.985,1h3.624a2.318,2.318,0,1,1,0,1.546H7.935l.985,1a.781.781,0,0,1,0,1.093.755.755,0,0,1-1.078,0ZM12.952,8.5a.762.762,0,1,0,.762-.773A.768.768,0,0,0,12.952,8.5Z" transform="translate(1.319 1.723)"/></g></svg>
