<svg xmlns="http://www.w3.org/2000/svg" width="12" height="12" viewBox="0 0 12 12"><g transform="translate(-992 -161.982)"><path class="b" d="M.988,10.914A.991.991,0,0,1,0,9.921V7.194A.992.992,0,0,1,.988,6.2h1.38l.992-2.79A1.837,1.837,0,0,1,4.3,0H6.075a1.836,1.836,0,0,1,.937,3.411L8,6.2h1.38a.992.992,0,0,1,.988.993V9.921a.991.991,0,0,1-.988.993Zm0-.993h8.4V8.681H.987Zm0-2.231h8.4v-.5H.987ZM6.954,6.2l-.882-2.48H4.3L3.418,6.2Zm-3.5-4.365a.843.843,0,0,0,.84.844H6.075a.844.844,0,0,0,0-1.688H4.3A.843.843,0,0,0,3.457,1.836Z" transform="translate(992.813 162.524)"/></g></svg>
