<svg xmlns="http://www.w3.org/2000/svg" width="36.849" height="40.47" viewBox="0 0 36.849 40.47"><defs><style>.a{fill:#6b8cef;}</style></defs><path class="a" d="M153.583,132.546l1.384-.746,5.325,2.982v-7.348l-1.065-.533-5.325-3.089v6.07l-1.172.639-4.473-2.556-5.325,2.982v6.177l5.325,2.982,5.325-2.982Zm16.294-2.024-1.065-.639v-6.07l-6.39,3.621v7.348l5.325-2.982,1.384.746v4.579l5.325,2.982,5.325-2.982v-6.177l-5.325-2.982Zm0-19.17v4.9l5.644,3.088v5.538l.533.32,3.728,2.13V116.784Zm-3.195,28.009-5.325,2.875-5.325-2.875-.852.533-3.514,1.917,9.691,5.325,9.691-5.325-3.514-1.917Zm-19.489-14.484V119.34l5.644-3.088v-4.9l-9.9,5.431v10.543l3.727-2.13ZM154.967,122l6.39,3.621,1.065-.639L167.747,122l-5.325-2.982v-.745l4.26-2.45v-6.07l-5.325-3.088-5.325,3.088v6.07l4.26,2.45v.745Z" transform="translate(-142.933 -106.667)"/></svg>