<svg xmlns="http://www.w3.org/2000/svg" width="12.757" height="13.676" viewBox="0 0 12.757 13.676"><g transform="translate(-6837.733 -2792.372)"><path d="M7239.743-5662.91a.508.508,0,0,1-.509-.509.508.508,0,0,1,.509-.509h.509v-1.168a.873.873,0,0,1,.871-.871h4.03a.872.872,0,0,1,.871.871v1.168h.511a.509.509,0,0,1,.509.509.509.509,0,0,1-.509.509Zm1.528-1.018h3.736v-1.019h-3.736Z" transform="translate(-401.5 8468.958)"/><rect fill="#ffffff" width="7.682" height="5.122" rx="1.004" transform="translate(6838.589 2798.171) rotate(-45)"/><path class="a" d="M7248.838-5654.187l-3.515-3.74-1.5,1.5a.845.845,0,0,1-.6.249.845.845,0,0,1-.6-.249l-3.141-3.14a.85.85,0,0,1,0-1.2l4.95-4.95a.852.852,0,0,1,1.2,0l3.141,3.137a.853.853,0,0,1,0,1.2l-1.269,1.269-.233.233,3.739,3.514a1.528,1.528,0,0,1,.489,1.1,1.512,1.512,0,0,1-.449,1.114,1.528,1.528,0,0,1-1.086.451A1.545,1.545,0,0,1,7248.838-5654.187Zm-2.793-4.46,3.538,3.761s0,0,0,0a.511.511,0,0,0,.38.166.521.521,0,0,0,.366-.151.526.526,0,0,0,.153-.377.523.523,0,0,0-.166-.371l0,0-3.764-3.538Zm-5.724-1.52,2.9,2.9.788-.79-2.9-2.9Zm1.509-1.508,2.9,2.9,1.694-1.694-2.9-2.9Zm2.413-2.414,2.9,2.9.788-.788-2.9-2.9Z" transform="translate(-401.011 8458.339)"/></g></svg>
