<svg xmlns="http://www.w3.org/2000/svg" width="40.81" height="40.224" viewBox="0 0 40.81 40.224"><defs><style>.a{fill:#6b8cef;}</style></defs><g transform="translate(-0.669)"><path class="a" d="M13.512,20.106v8.057a2.222,2.222,0,0,0,2.625,2.409c2.377-.218,4.754-.466,7.125-.709a1.154,1.154,0,0,1,1.429,1.22V38a2.143,2.143,0,0,1-2.134,2.2,64.562,64.562,0,0,1-12.771-.693,17.06,17.06,0,0,1-3.406-1.012c-2.7-1.149-4.085-3.381-4.8-6.1A28.716,28.716,0,0,1,.706,25.3C.67,21.427.62,17.545.777,13.663A32.665,32.665,0,0,1,1.689,7.59,8.509,8.509,0,0,1,8.444.975,40.676,40.676,0,0,1,17.658.013c1.622-.03,3.238,0,4.86,0a2.131,2.131,0,0,1,2.194,2.075c.03,2.364,0,4.727,0,7.086A1.049,1.049,0,0,1,23.45,10.3c-1.915-.162-3.826-.364-5.742-.552-.542-.056-1.085-.132-1.627-.172a2.233,2.233,0,0,0-2.534,2.343C13.507,14.65,13.512,17.378,13.512,20.106Z" transform="translate(0 0)"/><path class="a" d="M8.773,19.78V14.212c0-.916.441-1.356,1.363-1.275,2.316.207,4.632.415,6.943.678,1.834.207,2.878-.663,2.878-2.5v-9.4c0-1.149.507-1.589,1.627-1.407,1.236.192,2.483.369,3.694.678a8.468,8.468,0,0,1,6.659,6.995,42.908,42.908,0,0,1,.836,6.772c.132,3.482.112,6.984,0,10.472a41.831,41.831,0,0,1-.786,6.291c-.791,4.125-3.426,6.493-7.5,7.339-.948.2-1.911.354-2.868.481-1.176.152-1.647-.289-1.647-1.478V28.343A2.165,2.165,0,0,0,17.47,26c-2.377.2-4.754.44-7.125.688-1.014.106-1.551-.309-1.551-1.326Z" transform="translate(8.613 0.286)"/></g></svg>