<svg xmlns="http://www.w3.org/2000/svg" width="13.621" height="14.668" viewBox="0 0 13.621 14.668"><path d="M41.513,5.807v5.5a.3.3,0,0,1-.309.3h-.62a.3.3,0,0,1-.309-.306v-5.5a.3.3,0,0,1,.309-.3H41.2a.3.3,0,0,1,.309.306h0Zm2.477,0v5.5a.3.3,0,0,1-.31.3h-.618a.3.3,0,0,1-.309-.306v-5.5a.3.3,0,0,1,.309-.3h.618a.3.3,0,0,1,.309.306Zm2.477,0v5.5a.3.3,0,0,1-.31.3h-.618a.3.3,0,0,1-.309-.306v-5.5a.3.3,0,0,1,.309-.3h.619a.3.3,0,0,1,.309.306ZM47.7,12.721V3.667H39.037V12.72a1.072,1.072,0,0,0,.207.645c.048.054.083.081.1.081H47.4c.019,0,.052-.026.1-.081a1.072,1.072,0,0,0,.209-.644ZM41.2,2.444h4.333l-.464-1.117a.272.272,0,0,0-.164-.1H41.842a.272.272,0,0,0-.164.1Zm8.977.306v.611a.3.3,0,0,1-.309.306h-.929V12.72a2.15,2.15,0,0,1-.455,1.372,1.355,1.355,0,0,1-1.093.577H39.346a1.368,1.368,0,0,1-1.093-.558,2.071,2.071,0,0,1-.455-1.352V3.667h-.929a.3.3,0,0,1-.309-.306V2.75a.3.3,0,0,1,.309-.306h2.989L40.537.85a1.323,1.323,0,0,1,.522-.6A1.38,1.38,0,0,1,41.823,0h3.1a1.38,1.38,0,0,1,.765.248,1.329,1.329,0,0,1,.522.6l.678,1.595h2.989a.3.3,0,0,1,.309.306Z" transform="translate(-36.56)"/></svg>
