<svg xmlns="http://www.w3.org/2000/svg" width="14" height="11.455" viewBox="0 0 14 11.455"><g transform="translate(-2 -6)"><path d="M13.773,17.455H4.227a.636.636,0,0,1-.622-.5L2.014,9.635a.636.636,0,0,1,.906-.7l2.7,1.348L8.482,6.266a.636.636,0,0,1,1.036,0l2.866,4.012,2.7-1.348a.636.636,0,0,1,.906.7l-1.591,7.318A.636.636,0,0,1,13.773,17.455ZM4.74,16.182h8.52l1.2-5.518-1.993,1a.636.636,0,0,1-.8-.2L9,7.731l-2.664,3.73a.636.636,0,0,1-.8.2l-1.993-1Z" transform="translate(0)"/><path class="a" d="M19.911,26.822a1.911,1.911,0,1,1,1.911-1.911A1.913,1.913,0,0,1,19.911,26.822Zm0-2.548a.637.637,0,1,0,.637.637A.638.638,0,0,0,19.911,24.274Z" transform="translate(-10.911 -11.593)"/></g></svg>
