<svg xmlns="http://www.w3.org/2000/svg" width="28.384" height="30.184" viewBox="0 0 28.384 30.184"><g transform="translate(0 0)"><path d="M180.034,1042.6a8.108,8.108,0,0,1,11.3,2.519l6.05-3.493a15.159,15.159,0,0,0-5.7-5.471A19.432,19.432,0,0,0,180.034,1042.6Z" transform="translate(-169.005 -1034.307)"/><path d="M139.442,1071.581a.253.253,0,0,1,.3-.314A9.644,9.644,0,0,0,145.4,1071a8.25,8.25,0,0,0,1.2-.558c-.476-.317-2.274-.966-8.634,0-.285.042-.983.139-1.578.161a7.8,7.8,0,0,1,2.027,4.072A3.568,3.568,0,0,0,139.442,1071.581Z" transform="translate(-136.383 -1059.553)"/><path d="M141.111,1039.234a30.33,30.33,0,0,1,7.021-.456,20.791,20.791,0,0,1,7-6.606,20.565,20.565,0,0,1,5.633-2.208,15.1,15.1,0,0,0-20.064,9.326C140.839,1039.272,140.978,1039.254,141.111,1039.234Z" transform="translate(-139.609 -1028.845)"/><path d="M225.857,1106.452a2.448,2.448,0,0,0-1-1.622c-.075-.049-.151-.1-.226-.143a1.319,1.319,0,0,0-.893-.176q-.179.029-.367.065l.008,0c-.088.014-.174.031-.261.047-.233.05-.478.11-.738.179a7.215,7.215,0,0,0-2.181,1.086,3.029,3.029,0,0,0-.983,1.036.923.923,0,0,0-.064.369,2.53,2.53,0,0,0,.132.641,2.606,2.606,0,0,1,.052,1.651,4.385,4.385,0,0,1-.37.874,1.266,1.266,0,0,0-.061,1.437c.106.21.209.394.3.557a2.852,2.852,0,0,1,.51,1.773.25.25,0,0,0,.17.085h.019a.253.253,0,0,0,.252-.233,2.579,2.579,0,0,0-.519-1.721c-.092-.153-.2-.327-.3-.523a1.087,1.087,0,0,1,.062-1.322,4.042,4.042,0,0,0,.376-.826,2.31,2.31,0,0,0-.052-1.57,2.207,2.207,0,0,1-.132-.595.878.878,0,0,1,.167-.526.219.219,0,0,0,.047.02l4.916,1.557a.259.259,0,0,0,.076.011.252.252,0,0,0,.182-.077A2.6,2.6,0,0,0,225.857,1106.452Zm-1.139,1.592-4.588-1.452c.118-.1.245-.2.37-.293a6.709,6.709,0,0,1,2.335-1.093,7.959,7.959,0,0,1,1.061-.186.79.79,0,0,1,.506.12c.058.036.117.073.175.11a1.961,1.961,0,0,1,.776,1.257A2.032,2.032,0,0,1,224.718,1108.044Z" transform="translate(-197.91 -1085.382)"/><path d="M144.858,1081.873c.045.007.09.013.134.022a4.992,4.992,0,0,1,1.817.668,9.995,9.995,0,0,1,.913.664c.364.255.707.51,1.023.73a6.113,6.113,0,0,0,2.47.921l0,.008a12.734,12.734,0,0,0,3.4-.107c3.391-.457,5.581-.411,7.456.251q.47-.117.885-.192c-2.123-.96-4.494-1.088-8.409-.56a8.489,8.489,0,0,1-5.1-.455,8.356,8.356,0,0,1-1.329-.921,11.415,11.415,0,0,0-1.049-.768,5.233,5.233,0,0,0-1.363-.6l-.008,0c-.08-.022-.161-.042-.244-.062l-.091-.021c-.195-.043-.4-.078-.6-.1v-.014a8.994,8.994,0,0,0-5.348.712.253.253,0,0,1-.326-.071.247.247,0,0,1-.043-.111h0a8.54,8.54,0,0,0-1.057-3.074,15.1,15.1,0,0,0,20.726,16.393,2.348,2.348,0,0,0-.43-1.691c-.094-.168-.2-.357-.311-.577a2.663,2.663,0,0,1-.172-.424,17.492,17.492,0,0,1-4.391.617,9.9,9.9,0,0,1-5.2-1.33,8.749,8.749,0,0,1-3.863-5.076.253.253,0,0,1,.493-.116,8.393,8.393,0,0,0,3.639,4.762c2.362,1.418,5.471,1.634,9.242.641h0a2.1,2.1,0,0,1,.313-.971,3.958,3.958,0,0,0,.331-.778,2.122,2.122,0,0,0-.049-1.369,2.967,2.967,0,0,1-.153-.766,2.3,2.3,0,0,1,1.1-1.739,6.905,6.905,0,0,1,1.211-.769c-.06,0-.114.008-.136.011l-.7.073a11.448,11.448,0,0,0-1.552.246,8.654,8.654,0,0,0-2.074.679,21.449,21.449,0,0,1-2.026.959,6.936,6.936,0,0,1-3.028.463,5.589,5.589,0,0,1-1-.2,7.465,7.465,0,0,1-2.421-1.051,5.636,5.636,0,0,1-1-.909,6.217,6.217,0,0,1-.644-.681,4.477,4.477,0,0,1-.337-.481,6.15,6.15,0,0,0-1.146-1.078,6.314,6.314,0,0,0-3.338-1,2.9,2.9,0,0,1,1.217,2,8.822,8.822,0,0,1,.053,2.746c-.039.463-.08.942-.079,1.4a5.832,5.832,0,0,0,.747,3.2q-.514-.467-.977-.979a8.154,8.154,0,0,1-.276-2.224c0-.479.04-.97.081-1.444a8.45,8.45,0,0,0-.042-2.588c-.152-.657-.537-1.764-1.408-1.789a1.2,1.2,0,0,0-.19.012,1.892,1.892,0,0,0-1.491,1.447.242.242,0,0,1-.041.091q-.1-.447-.17-.9a2.234,2.234,0,0,1,1.182-1.026,9.2,9.2,0,0,1,4.959-.732" transform="translate(-137.432 -1066.172)"/><path d="M155.7,1072.032a.175.175,0,0,0,0-.024s0,0,0-.007a9.381,9.381,0,0,1-7.522,1.384,4.112,4.112,0,0,1-.839,2.719,9.862,9.862,0,0,1,6.093,0v0s.109.029.216.062a6.34,6.34,0,0,0,2.054-4.139Z" transform="translate(-144.572 -1061.097)"/></g></svg>