<svg xmlns="http://www.w3.org/2000/svg" width="72" height="60" viewBox="0 0 72 60"><defs><style>.a{fill:#fc3c44;stroke:#fff;}.b{fill:#fff;}.c,.e{fill:none;}.c{opacity:0;}.d{stroke:none;}</style></defs><g transform="translate(-695 -323)"><g transform="translate(706.229 329)"><path d="M51.471,10.294H46.324V0H7.721A7.721,7.721,0,0,0,0,7.721V51.471H51.471V36.03H38.6a5.147,5.147,0,1,1,0-10.294H51.471Zm-10.294,0H7.721a2.574,2.574,0,0,1,0-5.147H41.177Z" transform="translate(0)"/><path d="M719.374,565.774m-2.574,0a2.574,2.574,0,1,0,2.574-2.574A2.574,2.574,0,0,0,716.8,565.774Z" transform="translate(-680.77 -534.891)"/></g><g class="a" transform="translate(746.771 326)"><circle class="d" cx="10" cy="10" r="10"/><circle class="e" cx="10" cy="10" r="9.5"/></g><path class="b" d="M284.161,283.27l3.116-3.116a.56.56,0,0,0-.792-.792l-3.116,3.116-3.116-3.114a.559.559,0,1,0-.79.79l3.116,3.116-3.116,3.116a.56.56,0,0,0,.792.792l3.114-3.118,3.116,3.116a.56.56,0,0,0,.792-.792Z" transform="translate(473.401 52.73)"/><rect class="c" width="72" height="60" transform="translate(695 323)"/></g></svg>