<svg xmlns="http://www.w3.org/2000/svg" width="16.448" height="19" viewBox="0 0 16.448 19"><g transform="translate(-105.6 -25.6)"><path d="M291.179,30.421a4.787,4.787,0,0,1-4.789,4.789,4.561,4.561,0,0,1-1.859-.378,4.8,4.8,0,1,1,6.648-4.411Z" transform="translate(-172.534)"/><path d="M111.9,496v2.363h-5.2s-1.1.126-1.1,1.1v3.466h16.447v-3.466a1.048,1.048,0,0,0-1.1-1.071c-1.134-.031-5.2,0-5.2,0V496Z" transform="translate(0 -461.137)"/><path d="M142.4,885.115v1.764h15.061v-1.764a.448.448,0,0,0-.41-.315H142.715S142.4,884.863,142.4,885.115Z" transform="translate(-36.075 -842.28)"/></g></svg>
