<svg xmlns="http://www.w3.org/2000/svg" width="13.327" height="14.135" viewBox="0 0 13.327 14.135"><path fill-rule="evenodd" d="M230.014-3224.738a.505.505,0,0,1,.5.505v1.515h9.288v-1.515a.505.505,0,0,1,.5-.505h1.01a.505.505,0,0,1,.5.505v2.524a1.01,1.01,0,0,1-1.01,1.01H229.51a1.01,1.01,0,0,1-1.01-1.01v-2.524a.505.505,0,0,1,.5-.505Zm5.629-1.121,3.786-3.786a.5.5,0,0,0,0-.714l-.714-.715a.506.506,0,0,0-.714,0l-1.828,1.829v-5.084a.505.505,0,0,0-.5-.505h-1.01a.505.505,0,0,0-.5.505v4.839l-1.582-1.583a.506.506,0,0,0-.714,0l-.714.715a.5.5,0,0,0,0,.714l3.786,3.786A.507.507,0,0,0,235.643-3225.858Z" transform="translate(-228.5 3234.833)"/></svg>
