<svg xmlns="http://www.w3.org/2000/svg" width="20" height="20" viewBox="0 0 20 20"><defs><style>.a{fill:#ffa756;}</style></defs><path class="a" d="M10.021.021a10,10,0,1,0,10,10A10,10,0,0,0,10.021.021Zm2.706,15.612c-.588.2-1.05.36-1.4.471a4.008,4.008,0,0,1-1.216.166,2.639,2.639,0,0,1-1.654-.463,1.439,1.439,0,0,1-.593-1.183,3.675,3.675,0,0,1,.045-.564c.031-.194.081-.416.141-.657l.733-2.321c.065-.221.028-.425.074-.628a2.4,2.4,0,0,0,.065-.536c0-.306.028-.509-.108-.62s-.4-.086-.784-.086a2.547,2.547,0,0,0-.583.074c-.2.056-.372.012-.513.067l.2-.721c.477-.176.939-.323,1.377-.444a4.373,4.373,0,0,1,1.241-.185,2.558,2.558,0,0,1,1.634.453,1.721,1.721,0,0,1,.8,1.183c0,.1-.016.278-.041.536a3.206,3.206,0,0,1-.146.693l-.965,2.311a6.226,6.226,0,0,0-.156.638,2.762,2.762,0,0,0-.075.536.742.742,0,0,0,.231.629,1.434,1.434,0,0,0,.8.166,2.583,2.583,0,0,0,.6-.083,3.019,3.019,0,0,0,.487-.148ZM12.6,6.259a1.829,1.829,0,0,1-1.226.425,1.876,1.876,0,0,1-1.236-.425,1.274,1.274,0,0,1-.512-1.026,1.3,1.3,0,0,1,.512-1.026,1.886,1.886,0,0,1,1.236-.435,1.836,1.836,0,0,1,1.226.435,1.3,1.3,0,0,1,.513,1.026A1.275,1.275,0,0,1,12.6,6.259Z" transform="translate(-0.021 -0.021)"/></svg>