<svg xmlns="http://www.w3.org/2000/svg" xmlns:xlink="http://www.w3.org/1999/xlink" width="24" height="24" viewBox="0 0 24 24"><defs><style>.a,.d{fill:#fff;}.a{stroke:#707070;}.b{clip-path:url(#a);}.c{fill:#2081e2;}</style><clipPath id="a"><circle class="a" cx="12" cy="12" r="12" transform="translate(588 453)"/></clipPath></defs><g class="b" transform="translate(-588 -453)"><g transform="translate(588 453)"><path class="c" d="M12.688.584A12,12,0,1,0,24.583,12.478,12,12,0,0,0,12.688.584Z" transform="translate(-0.583 -0.583)"/><path class="d" d="M10.172,8.061a5.275,5.275,0,0,1,.268,6.146H6.62l3.552-6.146Z" transform="translate(-1.446 -1.652)"/><path class="d" d="M21.771,15.221a.122.122,0,0,1-.075.116,4.006,4.006,0,0,0-1.47,1c-.917,1.277-1.616,3.282-3.181,3.282h-6.53a4.23,4.23,0,0,1-4.245-4.28.112.112,0,0,1,.112-.11H9.477a.191.191,0,0,1,.191.191v.6a.575.575,0,0,0,.575.575h2.347V15.227h-1.6a6.866,6.866,0,0,0-.34-8.893,11.708,11.708,0,0,1,1.943.4v-.38a.715.715,0,0,1,1.429,0v.917c2.191,1.023,3.626,2.72,3.626,4.64A4.4,4.4,0,0,1,16.3,14.961a.871.871,0,0,1-.626.265H14.02V16.59H16.1c.448,0,1.253-.85,1.635-1.363a.109.109,0,0,1,.061-.038c.044-.013,3.819-.88,3.819-.88a.125.125,0,0,1,.158.119v.794Z" transform="translate(-1.396 -1.305)"/></g></g></svg>