<svg xmlns="http://www.w3.org/2000/svg" width="12" height="12" viewBox="0 0 12 12"><g transform="translate(-1261 -733)"><path fill="transparent" d="M0,0H12V12H0Z" transform="translate(1261 733)"/><path d="M8732-8414a1,1,0,0,1-1-1v-9a1,1,0,0,1,1-1h5a.493.493,0,0,1,.353.145l2.5,2.5a.5.5,0,0,1,.146.354v7a1,1,0,0,1-1,1Zm0-1h7v-6.794l-2.207-2.206H8732Zm1.382-2.378a2.982,2.982,0,0,1-.879-2.123,2.976,2.976,0,0,1,.879-2.121,2.977,2.977,0,0,1,2.121-.878,2.987,2.987,0,0,1,2.061.818,3.017,3.017,0,0,1,.687.972,3,3,0,0,1,.254,1.209,2.987,2.987,0,0,1-.88,2.123,2.982,2.982,0,0,1-2.121.877A2.98,2.98,0,0,1,8733.381-8417.377Zm.121-2.123a2,2,0,0,0,2,2,1.99,1.99,0,0,0,1.016-.276l-2.739-2.739A1.99,1.99,0,0,0,8733.5-8419.5Zm.984-1.723,2.738,2.737a2,2,0,0,0,.278-1.015,1.985,1.985,0,0,0-.628-1.455,2,2,0,0,0-1.373-.546A2.007,2.007,0,0,0,8734.486-8421.223Z" transform="translate(-7468.502 9158.5)"/></g></svg>
