<svg xmlns="http://www.w3.org/2000/svg" width="69.918" height="71.005" viewBox="0 0 69.918 71.005"><defs><style>.a{fill:#ff675f;}.b{fill:#ff5041;}.c{fill:#fff;}.d,.e{fill:#2c2c4e;}.e{opacity:0.15;}</style></defs><g transform="translate(-105.363 -84.88)"><path class="a" d="M168,377.331l-10.2-10.2-17.251,37.5a6.547,6.547,0,0,0-.55,3.8,6.546,6.546,0,0,0,3.815-.548l2.622-1.211L181.3,390.632Z" transform="translate(-31.651 -258.499)"/><path class="b" d="M218.585,559.533l3.623-1.667c-.061,0-.121-.006-.183-.006a4.376,4.376,0,0,0-3.441,1.673Zm4.946-16.052a7.929,7.929,0,0,1,.821-.742,2.861,2.861,0,0,0-4.58.07,7.923,7.923,0,0,1,.816.757,1.767,1.767,0,0,1,2.945-.084Zm5.67-6.833a3.282,3.282,0,0,1,2.707,1.425,7.954,7.954,0,0,1,.943-.57,4.376,4.376,0,0,0-7.271-.042,7.937,7.937,0,0,1,.951.56A3.282,3.282,0,0,1,229.2,536.649Zm-13.791,22.2a7.781,7.781,0,0,1,1.166.177,6.317,6.317,0,0,1,8.341-2.408l1.218-.56a7.424,7.424,0,0,0-10.726,2.791Zm10.217-3.578a7.943,7.943,0,0,1,.941.575,3.282,3.282,0,0,1,2.633-1.32,1.951,1.951,0,0,1,.244.01l1.568-.721a4.376,4.376,0,0,0-5.386,1.457Z" transform="translate(-100.787 -412.739)"/><path class="b" d="M308.643,555.674a7.932,7.932,0,0,1,.83-.752,2.861,2.861,0,0,0-4.7-.056,7.929,7.929,0,0,1,.832.736,1.767,1.767,0,0,1,3.037.072Zm-8.173,6.473a7.784,7.784,0,0,1,1.173.162,6.329,6.329,0,0,1,10.934.023,7.786,7.786,0,0,1,1.163-.178,7.44,7.44,0,0,0-13.27-.007Z" transform="translate(-178.689 -429.338)"/><path class="b" d="M246.52,574.262h.155a7.848,7.848,0,0,1,1.094-1.665l-.018.008a1.346,1.346,0,0,0-2.43-.075,7.85,7.85,0,0,1,1.152,1.73ZM241.5,587.9a7.88,7.88,0,0,1,1.063.39,4.8,4.8,0,0,1,6.261-1.5l1.187-.546A5.9,5.9,0,0,0,241.5,587.9Zm-2.089-13.487a3.282,3.282,0,0,1,2.6,1.281,7.953,7.953,0,0,1,.951-.571,4.381,4.381,0,0,0-7.137.054,7.941,7.941,0,0,1,.936.582A3.282,3.282,0,0,1,239.409,574.414Zm-5.089,17.928a7.881,7.881,0,0,1,1.062.391,4.8,4.8,0,0,1,4.881-2l1.479-.681a5.9,5.9,0,0,0-7.42,2.289Zm26.536-13.087a2.861,2.861,0,0,0-2.291,1.144,7.928,7.928,0,0,1,.827.741,1.759,1.759,0,0,1,2.569-.39l1.069-.491a2.861,2.861,0,0,0-2.174-1Z" transform="translate(-118.105 -445.944)"/><path class="b" d="M510.718,613.634a4.376,4.376,0,0,0-3.578,1.851,7.936,7.936,0,0,1,.948.564,3.282,3.282,0,0,1,5.2-.074l1.022-.47A4.376,4.376,0,0,0,510.718,613.634Zm3.9-2.427-.207-.207-.049.065Z" transform="translate(-367.968 -481.847)"/><path class="b" d="M477.464,606.07a7.479,7.479,0,0,0-6.634,4.071A7.775,7.775,0,0,1,472,610.3a6.328,6.328,0,0,1,10.841-.132l1.01-.465A7.479,7.479,0,0,0,477.464,606.07Z" transform="translate(-334.713 -477.332)"/><path class="b" d="M321.641,624.19A5.934,5.934,0,0,0,316.607,627a7.865,7.865,0,0,1,1.068.38,4.8,4.8,0,0,1,7.947.024l1.01-.466a5.933,5.933,0,0,0-4.991-2.753Zm-9.418,8.689c.179.144.353.3.519.456l2.967-1.365A2.861,2.861,0,0,0,312.223,632.879Zm2.306-5.738a7.479,7.479,0,0,0-6.609,4.025,7.793,7.793,0,0,1,1.164.182,6.325,6.325,0,0,1,10.153-1l1.043-.48A7.472,7.472,0,0,0,314.528,627.141ZM300.69,635.6a7.792,7.792,0,0,1,1.167.175,6.321,6.321,0,0,1,9.369-1.741l1.1-.5a7.428,7.428,0,0,0-11.64,2.074Z" transform="translate(-178.89 -493.927)"/><path class="b" d="M422.61,697.33a7.949,7.949,0,0,1,.938.58,3.282,3.282,0,0,1,4.305-.878l1.154-.531a4.376,4.376,0,0,0-6.4.828Z" transform="translate(-290.551 -559.211)"/><path class="b" d="M361.594,661.838a5.934,5.934,0,0,0-5.02,2.794,7.868,7.868,0,0,1,1.059.4,4.8,4.8,0,0,1,7.2-.831l1.07-.492A5.923,5.923,0,0,0,361.594,661.838Zm5.943.778c.069.079.135.16.2.242l1.628-.749a1.339,1.339,0,0,0-1.829.5Zm-13.167-2.206a2.861,2.861,0,0,0-2.291,1.144,7.932,7.932,0,0,1,.827.741,1.762,1.762,0,0,1,2.972.068,7.926,7.926,0,0,1,.822-.757,2.861,2.861,0,0,0-2.331-1.195Z" transform="translate(-225.956 -527.099)"/><path class="b" d="M340.358,627.372a4.376,4.376,0,0,0-3.578,1.851,7.944,7.944,0,0,1,.948.564,3.282,3.282,0,0,1,5.3.053,7.935,7.935,0,0,1,.94-.576A4.376,4.376,0,0,0,340.358,627.372ZM347.581,626a1.346,1.346,0,0,0-1.194.728,7.845,7.845,0,0,1,1.066,1.654h.146a7.848,7.848,0,0,1,1.132-1.73A1.346,1.346,0,0,0,347.581,626Z" transform="translate(-211.943 -495.585)"/><path class="b" d="M165.941,607.88a2.861,2.861,0,0,0-2.306,1.165,7.924,7.924,0,0,1,.818.757,1.763,1.763,0,0,1,2.93-.068,7.928,7.928,0,0,1,.821-.742A2.861,2.861,0,0,0,165.941,607.88Zm-7.223,5.945a1.346,1.346,0,0,0-1.169.682,7.85,7.85,0,0,1,1.124,1.7h.2a7.848,7.848,0,0,1,1.057-1.617,1.346,1.346,0,0,0-1.212-.763Zm0-4.573a5.934,5.934,0,0,0-5.034,2.815,7.879,7.879,0,0,1,1.068.38,4.8,4.8,0,0,1,7.956.038,7.886,7.886,0,0,1,1.06-.388,5.935,5.935,0,0,0-5.051-2.845Zm-17.607,16.533a7.878,7.878,0,0,1,1.06-.392,5.953,5.953,0,0,0-2.244-2.1l-.461,1A4.834,4.834,0,0,1,141.111,625.785Zm1.485-.5a7.785,7.785,0,0,1,1.165-.179,7.489,7.489,0,0,0-3.2-3.2l-.461,1A6.376,6.376,0,0,1,142.6,625.281Zm-2.808,1.27a7.943,7.943,0,0,1,.94-.577,4.417,4.417,0,0,0-1.441-1.3l-.241.524q-.113.246-.2.491A3.306,3.306,0,0,1,139.788,626.551Zm-.337.252a2.888,2.888,0,0,0-.749-.705,6.6,6.6,0,0,0-.252,1.224,1.777,1.777,0,0,1,.18.235A7.925,7.925,0,0,1,139.451,626.8Z" transform="translate(-30.303 -478.99)"/><path class="b" d="M410.5,571.65a5.934,5.934,0,0,0-5.02,2.794,7.883,7.883,0,0,1,1.059.4,4.8,4.8,0,0,1,7.9-.037,7.867,7.867,0,0,1,1.069-.385A5.933,5.933,0,0,0,410.5,571.65Z" transform="translate(-274.862 -445.809)"/><path class="b" d="M347.591,443.275a4.376,4.376,0,0,0-3.579,1.855,7.943,7.943,0,0,1,.938.58,3.282,3.282,0,0,1,5.243-.051,7.939,7.939,0,0,1,.948-.571,4.376,4.376,0,0,0-3.55-1.813Zm-4.556-10.986a7.943,7.943,0,0,1,.94-.576,4.376,4.376,0,0,0-7.185-.043,7.945,7.945,0,0,1,.948.565,3.282,3.282,0,0,1,5.3.053Z" transform="translate(-211.953 -315.908)"/><path class="b" d="M290.3,449.854a7.92,7.92,0,0,1,.822-.757,2.861,2.861,0,0,0-4.622-.056,7.932,7.932,0,0,1,.827.741,1.762,1.762,0,0,1,2.972.068Zm-1.509,3.474a6.358,6.358,0,0,1,5.518,3.225,7.784,7.784,0,0,1,1.16-.168,7.438,7.438,0,0,0-13.35-.008,7.787,7.787,0,0,1,1.169.155,6.357,6.357,0,0,1,5.5-3.2Zm-7.111.573a1.346,1.346,0,0,0-1.205.75,7.845,7.845,0,0,1,1.086,1.712h.1a7.847,7.847,0,0,1,1.169-1.811A1.346,1.346,0,0,0,281.675,453.9Z" transform="translate(-160.372 -332.467)"/><path class="b" d="M324.074,468.446h.155a7.845,7.845,0,0,1,1.056-1.618,1.346,1.346,0,0,0-2.381-.084,7.849,7.849,0,0,1,1.124,1.7Zm.615,9.007a7.79,7.79,0,0,1,1.164.182,6.329,6.329,0,0,1,10.877-.024,7.79,7.79,0,0,1,1.173-.168,7.438,7.438,0,0,0-13.212.008Zm-.615-5.958a4.8,4.8,0,0,1,4.034,2.195,7.876,7.876,0,0,1,1.059-.385A5.908,5.908,0,0,0,319,473.278a7.872,7.872,0,0,1,1.069.374A4.8,4.8,0,0,1,324.074,471.494Zm5.736-.553a1.763,1.763,0,0,1,2.93-.068,7.926,7.926,0,0,1,.821-.742,2.861,2.861,0,0,0-4.568.054A7.922,7.922,0,0,1,329.81,470.942Z" transform="translate(-195.66 -349.11)"/><path class="b" d="M237.212,516.147a1.346,1.346,0,0,0-1.194.728,7.847,7.847,0,0,1,1.106,1.734h.07a7.847,7.847,0,0,1,1.168-1.812,1.346,1.346,0,0,0-1.149-.65Zm.438,2.476a7.786,7.786,0,0,1,1.169.155,6.372,6.372,0,0,1,1.979-2.127l-.791-.791A7.469,7.469,0,0,0,237.651,518.623Zm-14.773,10.408a6.356,6.356,0,0,1,5.431,3.081,7.782,7.782,0,0,1,1.173-.168,7.438,7.438,0,0,0-13.212.01,7.789,7.789,0,0,1,1.161.186,6.356,6.356,0,0,1,5.446-3.109Z" transform="translate(-101.574 -394.713)"/><path class="b" d="M255.775,497.457h.018a7.847,7.847,0,0,1,1.132-1.73,1.346,1.346,0,0,0-2.356.1,7.846,7.846,0,0,1,1.048,1.632Zm14.369-14.407h-.034a4.376,4.376,0,0,0-3.579,1.855,7.949,7.949,0,0,1,.938.581,3.282,3.282,0,0,1,4.144-.969l-.944-.944Zm-14.369,18.981a3.282,3.282,0,0,1,2.6,1.281,7.933,7.933,0,0,1,.951-.575,4.381,4.381,0,0,0-7.137.054,7.94,7.94,0,0,1,.936.582A3.282,3.282,0,0,1,255.775,502.031Z" transform="translate(-134.472 -364.664)"/><path class="b" d="M193.772,418.693a4.8,4.8,0,0,1,3.936,2.05,7.867,7.867,0,0,1,1.069-.385,5.907,5.907,0,0,0-10.029.034,7.885,7.885,0,0,1,1.056.4A4.8,4.8,0,0,1,193.772,418.693Zm-7.892,1.4q-.14-.268-.3-.524l-.273.593Q185.588,420.117,185.879,420.092Zm11.072-25.248-1.189,2.583a6.352,6.352,0,0,1,5.12-2.609,6.272,6.272,0,0,1,.9.066l-1.165-1.165A7.433,7.433,0,0,0,196.952,394.844Zm-10.616,25.225h.367a7.845,7.845,0,0,1,1.038-1.6,1.346,1.346,0,0,0-1.222-.786h-.077l-.657,1.431A7.839,7.839,0,0,1,186.335,420.069Zm.183,1.521a6.357,6.357,0,0,1,5.45,3.114,7.8,7.8,0,0,1,1.166-.177,7.478,7.478,0,0,0-6.616-4.039,7.358,7.358,0,0,0-1.431.141l-.6,1.3A6.291,6.291,0,0,1,186.518,421.589Z" transform="translate(-72.469 -282.851)"/><path class="b" d="M174.923,427.361a4.8,4.8,0,0,1,3.963,2.089,7.882,7.882,0,0,1,1.061-.391,5.9,5.9,0,0,0-7.3-2.34l-.816,1.775A4.784,4.784,0,0,1,174.923,427.361Zm10.771-29-.036.078.068-.036C185.716,398.388,185.7,398.374,185.695,398.36Zm-9.29,32.858a7.923,7.923,0,0,1,.82-.751,2.861,2.861,0,0,0-4.609.01,7.928,7.928,0,0,1,.82.757,1.767,1.767,0,0,1,2.969-.012Z" transform="translate(-60.874 -287.101)"/><path class="b" d="M144.151,405.385h.114a7.847,7.847,0,0,1,1.074-1.646,1.346,1.346,0,0,0-2.381.014,7.849,7.849,0,0,1,1.06,1.634Zm0,1.525a6.282,6.282,0,0,1,1.545.194l1.444-.665a7.4,7.4,0,0,0-2.989-.633,7.475,7.475,0,0,0-5.921,2.94c.013.187.034.373.062.556a6.359,6.359,0,0,0,.842.078A6.352,6.352,0,0,1,144.151,406.91Zm0-5.827a3.282,3.282,0,0,1,2.638,1.327,7.947,7.947,0,0,1,.941-.576,4.376,4.376,0,0,0-7.163.008,7.944,7.944,0,0,1,.94.576A3.282,3.282,0,0,1,144.151,401.083Zm12.257-31.055a5.951,5.951,0,0,0-.787-.992l-.5,1.094c.077.093.151.188.22.287A7.872,7.872,0,0,1,156.408,370.027Zm.427-.109a7.763,7.763,0,0,1,1.022-.151L156.1,368l-.287.624A6.369,6.369,0,0,1,156.835,369.919ZM145.671,394.58a7.924,7.924,0,0,1,.821-.757,2.87,2.87,0,0,0-1.745-1.151l-.478,1.042A1.767,1.767,0,0,1,145.671,394.58Zm7.175,4.355a7.926,7.926,0,0,1,.821-.742,2.861,2.861,0,0,0-4.58.07,7.92,7.92,0,0,1,.816.757,1.767,1.767,0,0,1,2.945-.084Z" transform="translate(-30.101 -259.296)"/><path class="b" d="M155.54,449.422a6.732,6.732,0,0,0,2.421-.618l2.624-1.2.319-.146a5.865,5.865,0,0,0-.9-.07A5.928,5.928,0,0,0,155.54,449.422Zm11.718-29.064a1.767,1.767,0,0,1,1.441.749,7.923,7.923,0,0,1,.821-.742,2.857,2.857,0,0,0-2.744-1.07l-.7,1.515A1.767,1.767,0,0,1,167.258,420.359ZM176.572,419a7.885,7.885,0,0,1,1.059.4,4.8,4.8,0,0,1,3.59-2.071l-.964-.964A5.95,5.95,0,0,0,176.572,419Zm-9.381,22h.1A7.848,7.848,0,0,1,168.4,439.3a1.346,1.346,0,0,0-2.356.1A7.845,7.845,0,0,1,167.077,441Zm7.178-29.267a5.934,5.934,0,0,0-5.034,2.815,7.87,7.87,0,0,1,1.068.38,4.8,4.8,0,0,1,7.956.038c.115-.052.232-.1.351-.148l-2.907-2.907A5.865,5.865,0,0,0,174.369,411.73Zm-11.688,21.888a7.943,7.943,0,0,1,.937-.576,4.394,4.394,0,0,0-2.372-1.727l-.467,1.015A3.292,3.292,0,0,1,162.682,433.618Z" transform="translate(-45.955 -299.346)"/><path class="b" d="M264.646,452.657a7.793,7.793,0,0,1,1.164.182,6.374,6.374,0,0,1,3.763-2.874l-.875-.875A7.494,7.494,0,0,0,264.646,452.657Zm11.393,6.168a7.936,7.936,0,0,1,.832.736,1.767,1.767,0,0,1,1.468-.831l-.936-.936A2.877,2.877,0,0,0,276.039,458.826Zm4.106,2.995a6.371,6.371,0,0,1,.528-.757l-.784-.784a7.433,7.433,0,0,0-.9,1.36A7.8,7.8,0,0,1,280.145,461.82Zm-1.778-2.67a1.346,1.346,0,0,0-1.2.734,7.851,7.851,0,0,1,1.152,1.73h.2a7.843,7.843,0,0,1,1.069-1.633l-.745-.745A1.338,1.338,0,0,0,278.367,459.15Zm-3.621-1.133a7.943,7.943,0,0,1,.951.56,3.3,3.3,0,0,1,1.38-1.107l-.823-.823A4.419,4.419,0,0,0,274.746,458.018Zm-12.4-5.2a7.79,7.79,0,0,1,1.173-.168,7.494,7.494,0,0,0-5.041-3.848l-.475,1.031A6.368,6.368,0,0,1,262.351,452.816Zm10.939,4.648a7.868,7.868,0,0,1,1.069.374,4.841,4.841,0,0,1,1.587-1.5l-.8-.8A5.953,5.953,0,0,0,273.289,457.465Zm-16.37,1.252a6.356,6.356,0,0,1,5.432,3.08,7.781,7.781,0,0,1,1.173-.168,7.479,7.479,0,0,0-6.6-4.017,7.388,7.388,0,0,0-2.732.525l-.748,1.627a6.321,6.321,0,0,1,3.48-1.046Z" transform="translate(-135.616 -333.296)"/><path class="b" d="M227.351,574.84a4.8,4.8,0,0,1,7.905-.048,7.868,7.868,0,0,1,1.069-.385,5.9,5.9,0,0,0-8.857-1.334l-.7,1.526Q227.064,574.709,227.351,574.84Zm.714,4.463a7.882,7.882,0,0,1,1.057-.4,5.953,5.953,0,0,0-3.169-2.535l-.464,1.01A4.813,4.813,0,0,1,228.066,579.3Z" transform="translate(-110.018 -445.797)"/><path class="b" d="M236.506,497.728a7.79,7.79,0,0,1,1.16-.182,7.494,7.494,0,0,0-4.114-3.634l-.463,1.01A6.374,6.374,0,0,1,236.506,497.728Zm.043-8.907a7.788,7.788,0,0,1,1.156-.175,7.435,7.435,0,0,0-1.02-1.544l-.518,1.125A6.37,6.37,0,0,1,236.549,488.821Zm-.423.109c-.052-.084-.107-.173-.162-.258l-.168.362C235.906,489,236.015,488.963,236.126,488.931Zm2.156-4.714a3.282,3.282,0,0,1,2.6,1.281,7.94,7.94,0,0,1,.951-.571,4.376,4.376,0,0,0-3.314-1.806l-.51,1.109C238.1,484.222,238.189,484.217,238.282,484.217Zm24.708,9.544c.042-.061.084-.119.13-.177l-.786-.786a5.935,5.935,0,0,0-.4.566A7.882,7.882,0,0,1,262.99,493.761Z" transform="translate(-116.979 -364.728)"/><path class="b" d="M303.322,468.9a7.878,7.878,0,0,1,1.069-.385,5.945,5.945,0,0,0-4.1-2.693l-.485,1.053A4.8,4.8,0,0,1,303.322,468.9Z" transform="translate(-178.084 -348.884)"/><path class="c" d="M281.467,557.324v-6.61h-5.476V548.19h8v6.61h5.949v5.807h6.777v8.132h-2.524v-5.608h-6.777v-5.807Zm-6.291,6.291v-6.61H269.7v-2.524h8v6.61h5.949V566.9h6.777v8.132H287.9v-5.608h-6.777v-5.807Z" transform="translate(-150.508 -424.323)"/><path class="d" d="M114.057,355.851a8.745,8.745,0,0,1-7.9-12.388l18.513-40.244,33.306,33.3-40.244,18.513a8.781,8.781,0,0,1-3.676.814ZM116.853,353.127Zm9.116-42.664-15.988,34.754a4.519,4.519,0,0,0,5.994,5.994l34.754-15.988Z" transform="translate(0 -199.967)"/><path class="e" d="M137.829,384.274a6.5,6.5,0,0,1-1.082-7.186L154,339.59l14.39,14.39Z" transform="translate(-28.166 -233.276)"/><path class="d" d="M398.986,119.756l11.484-11.484,2.975,2.975-11.484,11.484Zm13.653-13.6,6.724-6.724,2.975,2.975-6.724,6.724Zm-19.48,7.7-3.049-2.9c.168-.181,13.206-14.066,11.241-24.212l4.131-.8c1.018,5.257-.783,11.587-5.352,18.818A65.018,65.018,0,0,1,393.159,113.854Zm17.9,18.044-2.9-3.049a64.449,64.449,0,0,1,9.095-6.97c7.229-4.57,13.56-6.371,18.818-5.352l-.8,4.126C425.107,118.69,411.193,131.766,411.054,131.9Zm1.082-32.415L408.738,97l-.007.009a12.724,12.724,0,0,0,1.485-3.185,15.278,15.278,0,0,0,.367-8.046l4.111-.9a19.059,19.059,0,0,1-2.558,14.6Zm4.251,18.038-2.977-2.976a17.192,17.192,0,0,1,13.053-4.474l-.4,4.186A12.942,12.942,0,0,0,416.387,117.522Z" transform="translate(-260.786)"/></g></svg>