<svg xmlns="http://www.w3.org/2000/svg" width="14" height="14" viewBox="0 0 14 14"><g transform="translate(-4 -4)"><path d="M4.675,8.386A.675.675,0,0,1,4,7.711V4.675A.675.675,0,0,1,4.675,4H7.711a.675.675,0,1,1,0,1.35H5.35V7.711A.675.675,0,0,1,4.675,8.386Z"/><path d="M7.711,35.386H4.675A.675.675,0,0,1,4,34.711V31.675a.675.675,0,0,1,1.35,0v2.362H7.711a.675.675,0,0,1,0,1.35Z" transform="translate(0 -17.386)"/><path d="M34.711,35.386H31.675a.675.675,0,0,1,0-1.35h2.362V31.675a.675.675,0,0,1,1.35,0v3.037A.675.675,0,0,1,34.711,35.386Z" transform="translate(-17.386 -17.386)"/><path d="M34.711,8.386a.675.675,0,0,1-.675-.675V5.35H31.675a.675.675,0,0,1,0-1.35h3.037a.675.675,0,0,1,.675.675V7.711A.675.675,0,0,1,34.711,8.386Z" transform="translate(-17.386)"/><path d="M18.595,23.35H8.706a.675.675,0,1,1,0-1.35h9.888a.675.675,0,1,1,0,1.35Z" transform="translate(-2.65 -11.675)"/></g></svg>
