<svg xmlns="http://www.w3.org/2000/svg" width="14" height="15.133" viewBox="0 0 14 15.133"><g transform="translate(-2 -2)"><path d="M28.191,23.376h-5.5a.688.688,0,0,1,0-1.376h5.5a.688.688,0,1,1,0,1.376Z" transform="translate(-13.121 -13.121)"/><path d="M32.688,21.5a.688.688,0,0,1-.486-1.174l1.577-1.577L32.2,17.174a.688.688,0,1,1,.973-.973l2.064,2.064a.688.688,0,0,1,0,.973L33.174,21.3A.686.686,0,0,1,32.688,21.5Z" transform="translate(-19.682 -9.185)"/><path d="M.064-2A2.066,2.066,0,0,1,2.127.064,2.066,2.066,0,0,1,.064,2.127,2.066,2.066,0,0,1-2,.064,2.066,2.066,0,0,1,.064-2Zm0,2.751A.689.689,0,0,0,.751.064.689.689,0,0,0,.064-.624.689.689,0,0,0-.624.064.689.689,0,0,0,.064.751Z" transform="translate(8.127 9.503)"/><path d="M9.566,17.133a7.566,7.566,0,1,1,5.3-12.97A7.614,7.614,0,0,1,15.886,5.4a.688.688,0,0,1-1.148.758A6.236,6.236,0,0,0,13.9,5.145a6.191,6.191,0,1,0,0,8.842,6.236,6.236,0,0,0,.838-1.017.688.688,0,1,1,1.148.758,7.615,7.615,0,0,1-1.023,1.241A7.524,7.524,0,0,1,9.566,17.133Z"/></g></svg>
