<svg xmlns="http://www.w3.org/2000/svg" width="35.626" height="37.885" viewBox="0 0 35.626 37.885"><defs><style>.a{fill:#6768ac;}</style></defs><g transform="translate(4.23 2.181)"><g transform="translate(-4.23 -2.181)"><path class="a" d="M180.034,1044.243a10.177,10.177,0,0,1,14.189,3.162l7.594-4.384a19.027,19.027,0,0,0-7.157-6.867A24.391,24.391,0,0,0,180.034,1044.243Z" transform="translate(-166.191 -1033.835)"/><path class="a" d="M140.223,1072a.317.317,0,0,1,.38-.394,12.105,12.105,0,0,0,7.1-.333,10.324,10.324,0,0,0,1.5-.7c-.6-.4-2.854-1.212-10.837,0-.358.053-1.234.174-1.98.2a9.8,9.8,0,0,1,2.545,5.111A4.479,4.479,0,0,0,140.223,1072Z" transform="translate(-136.383 -1056.904)"/><path class="a" d="M141.217,1041.884a38.063,38.063,0,0,1,8.813-.572,26.1,26.1,0,0,1,8.783-8.292,25.817,25.817,0,0,1,7.071-2.772,18.948,18.948,0,0,0-25.184,11.705C140.874,1041.933,141.049,1041.909,141.217,1041.884Z" transform="translate(-139.33 -1028.845)"/><path class="a" d="M227.68,1106.951a3.073,3.073,0,0,0-1.253-2.036c-.095-.061-.19-.121-.284-.179a1.656,1.656,0,0,0-1.121-.22q-.225.036-.461.081l.01,0c-.111.018-.219.039-.327.059-.292.063-.6.138-.926.225a9.058,9.058,0,0,0-2.737,1.363,3.8,3.8,0,0,0-1.234,1.3,1.16,1.16,0,0,0-.081.463,3.176,3.176,0,0,0,.166.8,3.27,3.27,0,0,1,.065,2.072,5.5,5.5,0,0,1-.464,1.1,1.589,1.589,0,0,0-.076,1.8c.133.264.262.495.376.7a3.58,3.58,0,0,1,.64,2.226.313.313,0,0,0,.214.106h.024a.317.317,0,0,0,.317-.293,3.237,3.237,0,0,0-.651-2.16c-.116-.192-.247-.411-.381-.657a1.364,1.364,0,0,1,.077-1.66,5.077,5.077,0,0,0,.472-1.037,2.9,2.9,0,0,0-.066-1.971,2.768,2.768,0,0,1-.166-.746,1.1,1.1,0,0,1,.209-.661.276.276,0,0,0,.059.025l6.17,1.953a.322.322,0,0,0,.1.015.316.316,0,0,0,.228-.1A3.26,3.26,0,0,0,227.68,1106.951Zm-1.43,2-5.758-1.822c.148-.13.308-.252.465-.368a8.42,8.42,0,0,1,2.93-1.372,9.994,9.994,0,0,1,1.332-.233.993.993,0,0,1,.636.151c.073.045.147.091.22.139a2.461,2.461,0,0,1,.975,1.578A2.551,2.551,0,0,1,226.251,1108.949Z" transform="translate(-192.602 -1080.505)"/><path class="a" d="M146.662,1082.66c.056.008.113.016.169.027a6.267,6.267,0,0,1,2.281.839,12.5,12.5,0,0,1,1.146.833c.457.321.887.641,1.283.916a7.672,7.672,0,0,0,3.1,1.156l.006.01a15.984,15.984,0,0,0,4.267-.135c4.256-.573,7-.516,9.359.315.393-.1.763-.179,1.111-.241-2.665-1.2-5.641-1.366-10.555-.7-2.034.275-4.373.479-6.4-.571a10.479,10.479,0,0,1-1.668-1.156,14.339,14.339,0,0,0-1.317-.963,6.568,6.568,0,0,0-1.711-.748l-.01,0c-.1-.028-.2-.052-.306-.077l-.114-.027c-.245-.054-.5-.1-.757-.13v-.018a11.289,11.289,0,0,0-6.713.894.318.318,0,0,1-.41-.089.311.311,0,0,1-.054-.14h0a10.72,10.72,0,0,0-1.326-3.859,18.951,18.951,0,0,0,26.014,20.576,2.948,2.948,0,0,0-.54-2.123c-.118-.21-.251-.448-.39-.724a3.339,3.339,0,0,1-.216-.532,21.959,21.959,0,0,1-5.512.774,12.426,12.426,0,0,1-6.525-1.67,10.98,10.98,0,0,1-4.849-6.371.318.318,0,1,1,.618-.145,10.534,10.534,0,0,0,4.567,5.977c2.964,1.78,6.867,2.051,11.6.8h0a2.633,2.633,0,0,1,.393-1.219,4.971,4.971,0,0,0,.416-.977,2.664,2.664,0,0,0-.062-1.718,3.724,3.724,0,0,1-.192-.961,2.887,2.887,0,0,1,1.377-2.183,8.65,8.65,0,0,1,1.52-.965c-.076,0-.143.01-.17.014l-.875.092a14.353,14.353,0,0,0-1.947.309,10.855,10.855,0,0,0-2.6.853,26.976,26.976,0,0,1-2.543,1.2,8.7,8.7,0,0,1-3.8.581,7.024,7.024,0,0,1-1.249-.245,9.373,9.373,0,0,1-3.038-1.319,7.083,7.083,0,0,1-1.254-1.14,7.831,7.831,0,0,1-.808-.854,5.631,5.631,0,0,1-.423-.6,7.71,7.71,0,0,0-1.438-1.353,7.924,7.924,0,0,0-4.189-1.256,3.636,3.636,0,0,1,1.528,2.51,11.073,11.073,0,0,1,.067,3.447c-.049.581-.1,1.182-.1,1.757a7.32,7.32,0,0,0,.938,4.022q-.645-.586-1.227-1.229a10.238,10.238,0,0,1-.347-2.791c0-.6.05-1.218.1-1.813a10.605,10.605,0,0,0-.053-3.248c-.191-.825-.674-2.214-1.767-2.246a1.5,1.5,0,0,0-.239.015,2.375,2.375,0,0,0-1.871,1.816.3.3,0,0,1-.051.114q-.125-.561-.213-1.135a2.8,2.8,0,0,1,1.484-1.288,11.552,11.552,0,0,1,6.224-.919" transform="translate(-137.341 -1062.952)"/><path class="a" d="M157.834,1072.039a.221.221,0,0,0,0-.03s0-.006,0-.008a11.775,11.775,0,0,1-9.442,1.737,5.162,5.162,0,0,1-1.053,3.413,12.377,12.377,0,0,1,7.647,0v0s.137.036.271.077a7.957,7.957,0,0,0,2.578-5.194Z" transform="translate(-143.866 -1058.315)"/></g></g></svg>