<svg xmlns="http://www.w3.org/2000/svg" width="14" height="14.22" viewBox="0 0 14 14.22"><path d="M117.746,97.572a.563.563,0,0,0-.637,0l-12.729,6.422c-.256,0-.381.257-.381.515s.127.515.256.515l3.054,1.927a.6.6,0,0,0,.763-.129l6.746-6.164.256.129-6.111,6.547a.475.475,0,0,0-.127.384v2.826a.7.7,0,0,0,.381.642.559.559,0,0,0,.637-.129l1.529-1.542,3.054,2.054a.464.464,0,0,0,.381.129h.256c.256-.129.381-.257.381-.515L118,98.342C118,97.956,118,97.7,117.746,97.572Z" transform="translate(-104 -97.475)"/></svg>
