<svg xmlns="http://www.w3.org/2000/svg" width="16" height="16" viewBox="0 0 16 16"><defs><style>.a{fill:#383838;}</style></defs><path class="a" d="M65.2,70a.8.8,0,0,0,.8.8h8a.8.8,0,0,0,0-1.6H66A.8.8,0,0,0,65.2,70Zm10.667-8H72.133a.8.8,0,0,0,0,1.6h3.2A1.068,1.068,0,0,1,76.4,64.667v3.2a.8.8,0,0,0,1.6,0V64.133A2.133,2.133,0,0,0,75.867,62ZM62.8,68.667a.8.8,0,0,0,.8-.8v-3.2A1.068,1.068,0,0,1,64.667,63.6h3.2a.8.8,0,0,0,0-1.6H64.133A2.133,2.133,0,0,0,62,64.133v3.733A.8.8,0,0,0,62.8,68.667ZM67.867,76.4h-3.2A1.068,1.068,0,0,1,63.6,75.333v-3.2a.8.8,0,0,0-1.6,0v3.733A2.133,2.133,0,0,0,64.133,78h3.733a.8.8,0,0,0,0-1.6ZM77.2,71.333a.8.8,0,0,0-.8.8v3.2A1.068,1.068,0,0,1,75.333,76.4h-3.2a.8.8,0,0,0,0,1.6h3.733A2.133,2.133,0,0,0,78,75.867V72.133A.8.8,0,0,0,77.2,71.333Z" transform="translate(-62 -62)"/></svg>