<svg xmlns="http://www.w3.org/2000/svg" width="16" height="12.799" viewBox="0 0 16 12.799"><g transform="translate(0 -0.12)"><path d="M576.8,192.8m-.8,0a.8.8,0,1,0,.8-.8A.8.8,0,0,0,576,192.8Z" transform="translate(-568.802 -189.481)"/><path d="M960.8,576.8m-.8,0a.8.8,0,1,0,.8-.8A.8.8,0,0,0,960,576.8Z" transform="translate(-948 -568.681)"/><path d="M192.8,576.8m-.8,0a.8.8,0,1,0,.8-.8A.8.8,0,0,0,192,576.8Z" transform="translate(-189.602 -568.681)"/><path d="M304.716,304.664a.8.8,0,1,0,.566-.235A.8.8,0,0,0,304.716,304.664Zm7.92,0a.8.8,0,1,0,.235.566A.8.8,0,0,0,312.636,304.664Z" transform="translate(-300.676 -300.505)"/><path d="M13.657,2.463A8,8,0,0,0,1.6,12.919l1.144-1.144a6.4,6.4,0,1,1,10.508,0L14.4,12.919a8,8,0,0,0-.744-10.456Z" transform="translate(0 0)"/><path d="M544.094,499.2a1.2,1.2,0,1,0,2.08,1.2,38.988,38.988,0,0,0,1.16-4.4A39.4,39.4,0,0,0,544.094,499.2Z" transform="translate(-537.133 -489.681)"/></g></svg>
