<svg xmlns="http://www.w3.org/2000/svg" width="14" height="14.001" viewBox="0 0 14 14.001"><g transform="translate(-2.999 -2.999)"><path d="M1.6,14A1.606,1.606,0,0,1,0,12.4V4.271a1.606,1.606,0,0,1,1.6-1.6H2.668V1.605A1.606,1.606,0,0,1,4.27,0H12.4A1.606,1.606,0,0,1,14,1.605V9.73a1.6,1.6,0,0,1-1.6,1.6H11.332V12.4A1.606,1.606,0,0,1,9.73,14Zm-.27-9.73V12.4a.271.271,0,0,0,.27.271H9.73A.271.271,0,0,0,10,12.4V4.271A.27.27,0,0,0,9.73,4H1.6A.27.27,0,0,0,1.335,4.271ZM12.4,10a.271.271,0,0,0,.272-.27V1.605a.273.273,0,0,0-.272-.272H4.27A.273.273,0,0,0,4,1.605V2.669H9.73a1.605,1.605,0,0,1,1.6,1.6V10Z" transform="translate(2.999 2.999)"/></g></svg>
