<svg xmlns="http://www.w3.org/2000/svg" width="24.081" height="11.607" viewBox="0 0 24.081 11.607"><defs><style>.a{fill:#3b71fe;}</style></defs><path class="a" d="M881.206,480.184l18.282-.029-2.143,2.141a.684.684,0,0,0,0,.965l.967.965a.68.68,0,0,0,.963,0l0,0,5.121-5.121a.686.686,0,0,0,.008-.969h0v.006l-5.121-5.121a.68.68,0,0,0-.963,0l0,0-.967.965a.684.684,0,0,0,0,.965l2.474,2.472-18.62.029a.684.684,0,0,0-.683.683V479.5A.683.683,0,0,0,881.206,480.184Z" transform="translate(-880.523 -472.82)"/></svg>