<svg xmlns="http://www.w3.org/2000/svg" width="47.441" height="54.219" viewBox="0 0 47.441 54.219"><defs><style>.a{fill:#fff;}</style></defs><path class="a" d="M85.349,37.8v6.14a2.372,2.372,0,0,0,4.744,0V37.8a4.482,4.482,0,0,0,2.372-3.914,4.75,4.75,0,0,0-9.488,0A4.486,4.486,0,0,0,85.349,37.8ZM64,20.332h47.441V54.219H64Zm14.232,0H97.209V13.555a9.5,9.5,0,0,0-18.977,0ZM87.721,0c7.862,0,14.232,6.066,14.232,13.555v6.777H73.488V13.555C73.488,6.066,79.859,0,87.721,0Z" transform="translate(-64)"/></svg>