<svg xmlns="http://www.w3.org/2000/svg" width="18.739" height="17.352" viewBox="0 0 18.739 17.352"><defs><style>.a{fill:#e17726;stroke:#e17726;}.a,.b,.c,.d,.e,.f,.g,.h,.i,.j{stroke-linecap:round;stroke-linejoin:round;stroke-width:0.25px;}.b{fill:#e27625;stroke:#e27625;}.c{fill:#d5bfb2;stroke:#d5bfb2;}.d{fill:#233447;stroke:#233447;}.e{fill:#cc6228;stroke:#cc6228;}.f{fill:#e27525;stroke:#e27525;}.g{fill:#f5841f;stroke:#f5841f;}.h{fill:#c0ac9d;stroke:#c0ac9d;}.i{fill:#161616;stroke:#161616;}.j{fill:#763e1a;stroke:#763e1a;}</style></defs><g transform="translate(-0.875 -0.875)"><path class="a" d="M27.047,1,19.824,6.344l1.343-3.15Z" transform="translate(-8.472)"/><g transform="translate(1.15 1)"><path class="b" d="M2.663,1,9.821,6.394l-1.279-3.2Z" transform="translate(-1.898 -1)"/><path class="b" d="M26.657,23.534l-1.922,2.936L28.85,27.6l1.179-4Z" transform="translate(-11.832 -11.142)"/><path class="b" d="M1.273,23.6l1.172,4,4.108-1.133L4.638,23.534Z" transform="translate(-1.273 -11.142)"/><path class="b" d="M9.535,12.491,8.392,14.216l4.072.185-.136-4.382Z" transform="translate(-4.477 -5.059)"/><path class="b" d="M22.753,12.45,19.917,9.928l-.093,4.432,4.072-.185Z" transform="translate(-9.622 -5.018)"/><path class="b" d="M10.873,26.545l2.465-1.19L11.216,23.7Z" transform="translate(-5.594 -11.217)"/><path class="b" d="M20.266,25.355l2.458,1.19L22.388,23.7Z" transform="translate(-9.821 -11.217)"/></g><path class="c" d="M22.723,27.9l-2.458-1.19.2,1.6-.021.677Z" transform="translate(-8.671 -11.57)"/><path class="c" d="M10.873,27.9l2.286,1.083-.014-.677.193-1.6Z" transform="translate(-4.444 -11.57)"/><path class="d" d="M13.436,20.752l-2.043-.6,1.443-.663Z" transform="translate(-4.678 -8.322)"/><path class="d" d="M20.513,20.752l.6-1.261,1.45.663Z" transform="translate(-8.782 -8.322)"/><path class="e" d="M9.306,26.469l.357-2.936L7.392,23.6Z" transform="translate(-2.877 -10.142)"/><path class="e" d="M24.1,23.534l.35,2.936L26.37,23.6Z" transform="translate(-10.396 -10.142)"/><path class="e" d="M23.9,17.651l-4.072.185.379,2.088.6-1.261,1.45.663Z" transform="translate(-8.472 -7.494)"/><path class="e" d="M10.042,19.325l1.443-.663.6,1.261.379-2.088-4.072-.185Z" transform="translate(-3.327 -7.494)"/><path class="f" d="M8.392,17.651,10.1,20.978l-.057-1.653Z" transform="translate(-3.327 -7.494)"/><path class="f" d="M24.189,19.325l-.064,1.653,1.707-3.328Z" transform="translate(-10.408 -7.494)"/><path class="f" d="M15.487,17.988l-.379,2.088.479,2.466.107-3.249Z" transform="translate(-6.35 -7.646)"/><path class="f" d="M19.66,17.988l-.2,1.3.1,3.256.479-2.466Z" transform="translate(-8.308 -7.646)"/><path class="g" d="M20.121,21.294l-.479,2.466.343.242,2.122-1.653.064-1.653Z" transform="translate(-8.39 -8.864)"/><path class="g" d="M11.393,20.7l.057,1.653L13.572,24l.343-.242-.479-2.466Z" transform="translate(-4.678 -8.864)"/><path class="h" d="M16.217,29.955l.021-.677-.186-.157H13.324l-.179.157.014.677-2.286-1.083.8.656L13.3,30.646h2.779L17.7,29.528l.793-.656Z" transform="translate(-4.444 -12.544)"/><path class="i" d="M17.9,26.51l-.343-.242H15.54l-.343.242L15,28.106l.179-.157h2.729l.186.157Z" transform="translate(-6.303 -11.372)"/><path class="j" d="M27.553,6.694l.607-2.95L27.246,1l-6.98,5.166,2.686,2.266,3.794,1.1.836-.976L27.217,8.3,27.8,7.77l-.443-.342.579-.442Z" transform="translate(-8.671)"/><path class="j" d="M1,3.743l.614,2.95-.393.292.586.442-.443.342.579.527-.364.264.836.976,3.794-1.1L8.894,6.166,1.914,1Z"/><path class="g" d="M28.482,15.619l-3.794-1.1,1.143,1.724-1.707,3.328,2.258-.029h3.372Z" transform="translate(-10.408 -6.083)"/><path class="g" d="M6.331,14.515l-3.794,1.1L1.273,19.539H4.638l2.258.029L5.188,16.239Z" transform="translate(-0.123 -6.083)"/><path class="g" d="M16.912,12.138l.243-4.176,1.1-2.971h-4.9l1.1,2.971.243,4.176.093,1.311.007,3.242h2.015l.007-3.242Z" transform="translate(-5.56 -1.796)"/></g></svg>