<svg xmlns="http://www.w3.org/2000/svg" xmlns:xlink="http://www.w3.org/1999/xlink" width="412" height="238" viewBox="0 0 412 238"><defs><style>.a{fill:#fff;}.b{fill:url(#a);}.c{clip-path:url(#b);}.d{clip-path:url(#c);}.e{opacity:0.574;}.f{opacity:0.518;}.g{opacity:0.7;fill:url(#d);}.h{fill:url(#e);}.i{opacity:0.611;fill:url(#f);}.j{opacity:0.593;fill:url(#g);}.k{fill:#114694;}.l{fill:url(#h);}.m{fill:#57f;}.n{fill:#3f64f5;}.o{fill:url(#i);}.p{fill:url(#j);}.q{fill:url(#k);}.r{fill:url(#l);}.s{fill:url(#m);}.t{fill:url(#n);}.u{fill:#abbcff;}.v{fill:#8fa5ff;}.w{fill:#b3c2ff;}.x{fill:#1e79ff;}.y{fill:#f5f6f7;}.z{fill:#a0b3ff;}.aa{fill:url(#o);}.ab{fill:url(#p);}.ac{fill:url(#q);}.ad{fill:url(#r);}.ae{fill:url(#s);}.af{fill:url(#u);}.ag{fill:url(#v);}.ah{fill:url(#w);}.ai{fill:#0034ff;}</style><radialGradient id="a" cx="1.223" cy="0.07" r="1.654" gradientTransform="translate(2.445 1.065) rotate(180)" gradientUnits="objectBoundingBox"><stop offset="0" stop-color="#86acf4"/><stop offset="1" stop-color="#fff" stop-opacity="0"/></radialGradient><clipPath id="b"><rect class="a" width="412" height="237.26" transform="translate(560 693.74)"/></clipPath><clipPath id="c"><rect class="a" width="326" height="459" transform="translate(-146.345 -0.004)"/></clipPath><linearGradient id="d" x1="0.5" y1="1" x2="0.5" gradientUnits="objectBoundingBox"><stop offset="0" stop-color="#b5acfe"/><stop offset="1" stop-color="#62a1ea"/></linearGradient><linearGradient id="e" x1="-0.872" y1="0.808" x2="1.855" y2="0.207" gradientUnits="objectBoundingBox"><stop offset="0" stop-color="#acfeeb"/><stop offset="1" stop-color="#7062ea"/></linearGradient><linearGradient id="f" x1="-1.008" y1="0.809" x2="1.929" y2="0.251" gradientUnits="objectBoundingBox"><stop offset="0" stop-color="#acc5fe"/><stop offset="1" stop-color="#6281ea"/></linearGradient><linearGradient id="g" x1="0.5" y1="1" x2="0.5" gradientUnits="objectBoundingBox"><stop offset="0" stop-color="#acd5fe"/><stop offset="1" stop-color="#6281ea"/></linearGradient><linearGradient id="h" x1="0.5" y1="-0.132" x2="0.5" y2="0.946" gradientUnits="objectBoundingBox"><stop offset="0" stop-color="#fff"/><stop offset="1" stop-color="#57f"/></linearGradient><linearGradient id="i" x1="0.5" y1="-0.317" x2="0.5" y2="0.727" xlink:href="#h"/><linearGradient id="j" x1="0.5" y1="-0.065" x2="0.5" y2="0.813" xlink:href="#h"/><linearGradient id="k" x1="0.5" y1="-1.401" x2="0.5" y2="0.694" xlink:href="#h"/><linearGradient id="l" x1="0.5" y1="-0.481" x2="0.5" y2="0.754" xlink:href="#h"/><linearGradient id="m" x1="0.5" y1="-0.187" x2="0.5" y2="1.072" xlink:href="#h"/><linearGradient id="n" x1="0.5" y1="-0.279" x2="0.5" y2="0.783" xlink:href="#h"/><linearGradient id="o" x1="0.5" y1="-0.496" x2="0.5" y2="1.131" xlink:href="#h"/><linearGradient id="p" x1="0.5" y1="-0.336" x2="0.5" y2="0.697" gradientUnits="objectBoundingBox"><stop offset="0" stop-color="#fff"/><stop offset="1" stop-color="#3f64f5"/></linearGradient><linearGradient id="q" x1="0.5" y1="1.4" x2="0.5" y2="-0.587" xlink:href="#h"/><linearGradient id="r" x1="0.5" y1="1.533" x2="0.5" y2="-1.116" xlink:href="#h"/><linearGradient id="s" x1="0.5" y1="1.757" x2="0.5" y2="-2.006" xlink:href="#h"/><linearGradient id="u" x1="0.5" y1="1.176" x2="0.5" y2="-0.623" xlink:href="#h"/><linearGradient id="v" x1="0.5" y1="2.002" x2="0.5" y2="-2.978" xlink:href="#h"/><linearGradient id="w" x1="0.5" y1="1.577" x2="0.5" y2="-1.289" xlink:href="#h"/></defs><g transform="translate(-857 -693)"><rect class="a" width="412" height="238" transform="translate(857 693)"/><rect class="b" width="412" height="237.26" transform="translate(857 693)"/><g class="c" transform="translate(297 -0.74)"><g class="d" transform="translate(794.345 508.004)"><g class="e" transform="translate(-142.794 -4.976)"><g transform="translate(34.963 270.909)"><g class="f"><path class="g" d="M107.461,407.749l260.654.383L367.816,285l-33.065-15.442-3.1-30.96L307.97,232h-6.21V262.54l-3.493.825v6.254l-5.495,4.79.06-29.618-4.27-7.843-19.407-.825-3.881,7.017v33.43l-8.152,9.912v-26L243.538,238.6l-19.407,20.227v12.909l-19.019.3V224.152h-32.6v59.854H156.982V234.471l-7.763-19.4h-10.48l-4.269,17.75v52.012l-26.632,6.242Z" transform="translate(-107.461 -215.07)"/><path class="h" d="M206.053,415.5,204.6,308.3l-.857-13.433H180.972l-1.507,13.52v107.2h12.747v-.042Zm-5.716-116.569-2.39,7.776H186.595l-2.988-7.776Z" transform="translate(-114.192 -222.53)"/><path class="i" d="M343.973,360.534h0l-.34-7.678.034.046-3.172-70.8s-3.143-3.006-4.371-3.079c-2.076-.127-4.362-.12-6.076-.086l-.017-.021a4.891,4.891,0,0,0-2.318.092l-.3.015s.007.044.017.116a1.537,1.537,0,0,0-.68.705c-.687,1.488-.4,10.591-.4,10.591h0l-2.136,56.339L321.6,414.092h25.687Z" transform="translate(-127.479 -221.029)"/><path class="j" d="M107.721,417V366.419l7.217-6.929h16.4l11.807,15.243,9.839-4.989h6.56v-7.2H184.6v6.928H193v3.326h6.56v17.738h11.807V353.116s13.117-14.135,12.463-13.3,9.184,12.472,9.184,12.472l3.935,38.525H260.56l9.84-80.929h17.712l11.806,78.435h19.024V376.951h15.744V358.382h33.453V417Z" transform="translate(-107.485 -223.933)"/></g></g><g transform="translate(8.195 319.185)"><rect class="k" width="42.361" height="33.491" transform="translate(106.135 81.237)"/><rect class="l" width="25.971" height="92.034" transform="translate(139.023 22.693)"/><rect class="m" width="28.115" height="61.524" transform="translate(150.825 55.221)"/><rect class="n" width="22.693" height="52.195" transform="translate(166.437 64.55)"/><rect class="o" width="20.676" height="48.324" transform="translate(170.464 66.403)"/><rect class="n" width="13.868" height="69.089" transform="translate(188.625 44.378)"/><rect class="p" width="12.355" height="93.547" transform="translate(197.51 21.18)"/><rect class="m" width="26.097" height="111.954" transform="translate(202.426 1.513)"/><rect class="q" width="16.97" height="27.988" transform="translate(220.654 84.722)"/><path class="r" d="M835.039,1114.779v-5.232h3.656v5.232h2.017v42.235H834.32v-42.235Z" transform="translate(-605.244 -1041.215)"/><rect class="m" width="12.776" height="34.797" transform="translate(236.501 78.67)"/><rect class="m" width="13.112" height="34.019" transform="translate(244.828 82.873)"/><rect class="k" width="20.928" height="43.328" transform="translate(276.5 73.564)"/><path class="n" d="M368.7,816.288V733.079l-8.069-1.513v5.043l-14.877-2.269-3.782,1.765V842.26H368.7Z" transform="translate(-51.852 -731.566)"/><rect class="s" width="18.407" height="52.951" transform="translate(119.995 60.516)"/><path class="t" d="M1523.939,1054.466v-3.782h2.4v-5.295h2.774v5.295h2.521v3.782h3.908v51.943h-16.39v-51.943Z" transform="translate(-1413.561 -988.655)"/><g transform="translate(137.885 26.391)"><rect class="u" width="19.667" height="0.841" transform="translate(0 0)"/><rect class="u" width="19.667" height="0.841" transform="translate(0 3.686)"/><rect class="u" width="19.667" height="0.84" transform="translate(0 7.373)"/><rect class="u" width="19.667" height="0.841" transform="translate(0 11.059)"/><rect class="u" width="19.667" height="0.841" transform="translate(0 14.745)"/><rect class="u" width="19.667" height="0.841" transform="translate(0 18.431)"/><rect class="u" width="19.667" height="0.84" transform="translate(0 22.117)"/><rect class="u" width="19.667" height="0.841" transform="translate(0 25.803)"/></g><g transform="translate(104.284 84.66)"><rect class="v" width="15.444" height="0.577" transform="translate(0 0)"/><rect class="v" width="15.444" height="0.577" transform="translate(0 2.529)"/><rect class="v" width="15.444" height="0.577" transform="translate(0 5.058)"/><rect class="v" width="15.444" height="0.577" transform="translate(0 7.587)"/><rect class="v" width="15.444" height="0.577" transform="translate(0 10.116)"/><rect class="v" width="15.444" height="0.577" transform="translate(0 12.645)"/><rect class="v" width="15.444" height="0.577" transform="translate(0 15.174)"/><rect class="v" width="15.444" height="0.577" transform="translate(0 17.703)"/></g><g transform="translate(122.909 63.037)"><g transform="translate(0)"><rect class="w" width="2.08" height="2.08" transform="translate(11.441)"/><rect class="w" width="2.08" height="2.08" transform="translate(8.581)"/><rect class="w" width="2.08" height="2.08" transform="translate(5.721)"/><rect class="w" width="2.08" height="2.08" transform="translate(2.86)"/><rect class="w" width="2.08" height="2.08"/></g><g transform="translate(0 3.27)"><rect class="w" width="2.08" height="2.08" transform="translate(11.441)"/><rect class="w" width="2.08" height="2.08" transform="translate(8.581)"/><rect class="w" width="2.08" height="2.08" transform="translate(5.721)"/><rect class="w" width="2.08" height="2.08" transform="translate(2.86)"/><rect class="w" width="2.08" height="2.08"/></g><g transform="translate(0 6.54)"><rect class="w" width="2.08" height="2.08" transform="translate(11.441)"/><rect class="w" width="2.08" height="2.08" transform="translate(8.581)"/><rect class="w" width="2.08" height="2.08" transform="translate(5.721)"/><rect class="w" width="2.08" height="2.08" transform="translate(2.86)"/><rect class="w" width="2.08" height="2.08"/></g><g transform="translate(0 9.81)"><rect class="w" width="2.08" height="2.08" transform="translate(11.441)"/><rect class="w" width="2.08" height="2.08" transform="translate(8.581)"/><rect class="w" width="2.08" height="2.08" transform="translate(5.721)"/><rect class="w" width="2.08" height="2.08" transform="translate(2.86)"/><rect class="w" width="2.08" height="2.08"/></g><g transform="translate(0 13.08)"><rect class="w" width="2.08" height="2.08" transform="translate(11.441)"/><rect class="w" width="2.08" height="2.08" transform="translate(8.581)"/><rect class="w" width="2.08" height="2.08" transform="translate(5.721)"/><rect class="w" width="2.08" height="2.08" transform="translate(2.86)"/><rect class="w" width="2.08" height="2.08"/></g></g><rect class="x" width="2.49" height="1.04" transform="translate(158.881 58.152)"/><rect class="x" width="1.292" height="1.292" transform="translate(160.033 59.759)"/><rect class="x" width="1.35" height="1.35" transform="translate(171.173 57.322)"/><rect class="x" width="1.261" height="1.261" transform="translate(171.957 61.608)"/><rect class="x" width="1.261" height="1.261" transform="translate(165.138 62.239)"/><rect class="x" width="1.324" height="1.324" transform="translate(172.361 70.391)"/><rect class="x" width="1.324" height="1.324" transform="translate(172.361 72.955)"/><rect class="y" width="1.555" height="1.555" transform="translate(183.45 85.1)"/><rect class="y" width="1.555" height="1.555" transform="translate(181.28 85.1)"/><rect class="y" width="1.555" height="1.555" transform="translate(181.28 88.126)"/><rect class="y" width="1.555" height="1.555" transform="translate(183.45 91.152)"/><rect class="y" width="1.555" height="1.555" transform="translate(181.28 91.152)"/><rect class="y" width="1.555" height="1.555" transform="translate(183.45 94.178)"/><rect class="y" width="1.555" height="1.555" transform="translate(196.079 88.861)"/><rect class="y" width="1.555" height="1.555" transform="translate(193.909 88.861)"/><rect class="y" width="1.555" height="1.555" transform="translate(191.692 88.861)"/><rect class="y" width="1.555" height="1.555" transform="translate(189.522 88.861)"/><rect class="y" width="1.555" height="1.555" transform="translate(191.692 91.887)"/><rect class="y" width="1.555" height="1.555" transform="translate(189.522 94.913)"/><rect class="y" width="1.555" height="1.555" transform="translate(191.692 97.939)"/><rect class="y" width="1.555" height="1.555" transform="translate(189.522 97.939)"/><rect class="y" width="1.555" height="1.555" transform="translate(193.909 91.887)"/><rect class="y" width="1.555" height="1.555" transform="translate(196.079 94.913)"/><rect class="y" width="1.555" height="1.555" transform="translate(193.909 94.913)"/><rect class="y" width="1.555" height="1.555" transform="translate(196.079 97.939)"/><rect class="n" width="13.868" height="1.513" transform="translate(188.625 44.378)"/><rect class="z" width="13.868" height="1.513" transform="translate(188.625 64.891)"/><rect class="n" width="13.952" height="34.04" transform="translate(187.694 78.67)"/><rect class="x" width="6.556" height="1.471" transform="translate(218.546 31.393)"/><rect class="x" width="6.556" height="1.471" transform="translate(211.499 34.377)"/><rect class="x" width="6.556" height="1.471" transform="translate(218.546 40.347)"/><rect class="x" width="6.556" height="1.471" transform="translate(211.499 40.347)"/><rect class="x" width="21.433" height="1.387" transform="translate(206.971 13.994)"/><rect class="n" width="22.189" height="72.514" transform="translate(261.203 44.378)"/><rect class="m" width="18.491" height="36.94" transform="translate(253.123 79.805)"/><rect class="aa" width="6.934" height="32.527" transform="translate(157.279 22.693)"/><path class="n" d="M301.52,992.531h34.04v31.493l-34.04,6.729Z" transform="translate(-11.404 -945.353)"/><path class="ab" d="M341.969,734.34v81.948l22.946-37.544V733.079l-8.069-1.513v5.043Z" transform="translate(-48.07 -731.566)"/><g transform="translate(0 84.66)"><path class="ac" d="M1661.055,1253.267v-.235h4.3v4.542h.618v-13.664h6.062v7.121h3.531v2.178h2.207v4.238h.677v-8.181h2.236v-5.709h1.442v-4.3h6.091v19.6h2.372v6.533h-33.211v-12.124Z" transform="translate(-1584.453 -1239.26)"/><path class="ad" d="M1880.614,1279.518v-.177h3.221v3.406h.464V1272.5h4.545v5.339h2.648v1.633h1.655v3.177h.508v-6.133h1.677v-4.28h1.081v-3.221h4.567v14.694h1.778v4.9h-24.9v-9.09Z" transform="translate(-1845.076 -1262.476)"/><path class="ae" d="M1941.864,1302.793v-.124h2.268v2.4h.326v-7.214h3.2v3.76h1.864v1.149h1.165V1305h.357v-4.318h1.18v-3.014h.761V1295.4h3.215v10.345h1.252v3.448h-17.531v-6.4Z" transform="translate(-1913.413 -1283.061)"/><path class="ae" d="M2000.445,1302.793v-.124h2.268v2.4h.326v-7.214h3.2v3.76h1.864v1.149h1.165V1305h.357v-4.318h1.18v-3.014h.761V1295.4h3.215v10.345h1.252v3.448H1998.5v-6.4Z" transform="translate(-1984.868 -1283.061)"/><path class="af" d="M2025.136,1256.43v23.726h25.313v-7.213h-2.616V1251.3H2041.1v4.747h-1.595v6.3h-2.473v9.039h-.746V1266.7h-2.437v-2.4h-3.905v-7.869Z" transform="translate(-2025.136 -1248.651)"/><path class="ag" d="M1788.75,1316.327v-.094h1.714v1.811h.247v-5.45h2.418v2.84h1.408v.869h.88v1.69h.27v-3.263h.892v-2.277h.575v-1.713h2.429v7.817h.946v2.606h-13.246v-4.836Z" transform="translate(-1722.943 -1295.031)"/><path class="ah" d="M1861.992,1285.464v-.163h-2.978v3.148h-.428v-9.47h-4.2v4.936h-2.448v1.509h-1.529v2.938h-.469v-5.67h-1.55v-3.957h-1v-2.978h-4.221v13.583h-1.644v4.527h23.017v-8.4Z" transform="translate(-1798.876 -1267.736)"/></g></g><g transform="translate(232.615 252.138)"><g transform="translate(0 0)"><path class="ai" d="M230.25,279.649a11.59,11.59,0,0,0,4.779,9.378l-10.591,19.124h3.837l3.941-6.852,7.227,6.493v.359h3.98v-.123l7.894-7.093,4.15,7.216H259.3l-10.592-19.123a11.608,11.608,0,0,0-2.384-20.11V216.993A10.014,10.014,0,0,0,244.3,198.3l-.461-15.507a3.871,3.871,0,0,0-.2-6.8l-1.372-46.126h-.955l-1.267,46.156a3.869,3.869,0,0,0-.185,6.753l-.427,15.53a10.013,10.013,0,0,0-2.021,18.69v51.926A11.622,11.622,0,0,0,230.25,279.649Zm15.185,11.058,5.005,8.7-7.018,6.239v-14.5A11.5,11.5,0,0,0,245.435,290.707ZM240.8,219.321h2.969v6.525H240.8Zm0,9.332h2.969v6.525H240.8Zm0,9.331h2.969v6.527H240.8Zm0,9.332h2.969v6.526H240.8Zm0,9.332h2.969v6.526H240.8Zm-2.493,34.059a11.475,11.475,0,0,0,1.137.3v14.406l-6.35-5.643Z" transform="translate(-224.438 -129.863)"/></g></g></g></g></g></g></svg>