<svg xmlns="http://www.w3.org/2000/svg" width="163.5" height="21.271" viewBox="0 0 163.5 21.271"><defs><style>.a{fill:#7769b4;}</style></defs><g transform="translate(0 0.154)"><g transform="translate(0 -0.154)"><path class="a" d="M92.992,11.255V10.137a7.9,7.9,0,0,1,1.471-4.589,10.126,10.126,0,0,1,4.53-3.765,12.41,12.41,0,0,1,2.53-.706c.647-.118,1.294-.118,1.942-.177a1.879,1.879,0,0,1,.824.177c.235.118.647-.059.883.059.294.118.588.059.824.177a12.511,12.511,0,0,1,2.648,1.353,11.815,11.815,0,0,1,2.706,2.706,8.356,8.356,0,0,1,1.53,3.765A11.081,11.081,0,0,1,113,12.549a8.2,8.2,0,0,1-2.118,4.766c-.294.294-.471.706-.765.941a12.764,12.764,0,0,1-3.942,2.353c-.294.118-.706,0-1,.294-.53-.118-1,.235-1.589.177-.53-.059-1.118.059-1.647,0a10.054,10.054,0,0,1-3.707-1.118,13.047,13.047,0,0,1-3.295-2.648,7.573,7.573,0,0,1-1.589-2.942A12.07,12.07,0,0,1,92.992,11.255Zm16.415-.412a5.4,5.4,0,0,0-.471-2.648,6.606,6.606,0,0,0-1.942-2.471,3.36,3.36,0,0,0-1.236-.765,8.193,8.193,0,0,0-2.942-.588,7.14,7.14,0,0,0-3.059.941,6.433,6.433,0,0,0-2.295,2.236,7.812,7.812,0,0,0-.883,2.648,3.619,3.619,0,0,0-.059.765c0,.177,0,.765.118.765a3.874,3.874,0,0,0,.706,2.236A4.842,4.842,0,0,0,98.7,15.667a6.278,6.278,0,0,0,3,1.647,8.906,8.906,0,0,0,1.765.118,4.5,4.5,0,0,0,1.765-.353,6.242,6.242,0,0,0,3.589-3A6.146,6.146,0,0,0,109.407,10.843Z" transform="translate(-38.276 -0.28)"/><path class="a" d="M149.262,21.117c-1.177-1.177-2.295-2.236-3.354-3.412-1.177-1.236-2.53-2.295-3.765-3.53-1.177-1.236-2.353-2.471-3.648-3.589-.883-.765-1.706-1.647-2.589-2.471,0,.118.059-.059-.059,0l-.059.059V20.058H132.2V-.122c.294-.118.412.118.53.294,1.471,1.412,2.824,2.942,4.354,4.295,2.353,2.118,4.471,4.413,6.766,6.589.529.53,1.118,1,1.647,1.471a.446.446,0,0,0,.235.118c.176,0,.118-.177.118-.294V.466h3.412C149.262,7.35,149.262,14.175,149.262,21.117Z" transform="translate(-54.421 0.154)"/><path class="a" d="M30.7,20.789V1.492h1.059c1.353,0,2.706.059,4,0a19.252,19.252,0,0,1,3.177.235,6.005,6.005,0,0,1,2.236.588,5.923,5.923,0,0,1,1.942,1.177c.235.235.588.412.824.647a9.209,9.209,0,0,1,2.471,4.177,4.387,4.387,0,0,1,.235,1.53v2.53a8.109,8.109,0,0,1-1.177,3.883,7.939,7.939,0,0,1-1.647,2.059,10.537,10.537,0,0,1-3.589,2.118,14.011,14.011,0,0,1-1.53.294,16.75,16.75,0,0,1-3.824.118c-1.294.059-2.589,0-3.942,0C30.877,20.848,30.818,20.789,30.7,20.789Zm3.648-3.412H36.76a7.842,7.842,0,0,0,1.647-.177,6.444,6.444,0,0,0,2.942-1.53,5.131,5.131,0,0,0,1.471-2.236,8.754,8.754,0,0,0,.471-2.471V10.14a3.553,3.553,0,0,0-.353-1.294,6.56,6.56,0,0,0-2.589-3.059A8.567,8.567,0,0,0,37.231,4.9a23.565,23.565,0,0,0-2.883,0Z" transform="translate(-12.638 -0.519)"/><path class="a" d="M77.687,6.809a2.327,2.327,0,0,1-.883-.588,8.091,8.091,0,0,0-3.177-1.589,7.3,7.3,0,0,0-1.589-.177,5.9,5.9,0,0,0-4.06,1.706,6.72,6.72,0,0,0-1.53,2.118,6.8,6.8,0,0,0-.471,1.883,2.183,2.183,0,0,1-.118.53c0,.353-.059.471-.059.706a5.3,5.3,0,0,0,.177.941,4.333,4.333,0,0,0,.235.824,5.151,5.151,0,0,0,.706,1.53A6.6,6.6,0,0,0,70.273,17.4a2.327,2.327,0,0,0,1.294.235h.706A6.125,6.125,0,0,0,76.157,16.4a5.058,5.058,0,0,0,1.177-1.059c.059-.059.177-.118.235-.059.118,0,.118.118.118.235v3.824a.515.515,0,0,1-.353.53,14.628,14.628,0,0,1-2.648,1.059,12.573,12.573,0,0,1-3.648.177,13.763,13.763,0,0,1-2.236-.53,18.432,18.432,0,0,1-1.883-.883,5.164,5.164,0,0,1-.883-.706,9.639,9.639,0,0,1-2.824-3.53,11.352,11.352,0,0,1-.647-2,13.473,13.473,0,0,1-.118-3.765,4.632,4.632,0,0,1,.588-2.177c.176-.353.412-.765.588-1.118a6.339,6.339,0,0,1,1.236-1.765A12.637,12.637,0,0,1,66.92,2.75a12.737,12.737,0,0,1,3.354-1.412,12.367,12.367,0,0,1,2.942-.177,9.8,9.8,0,0,1,3.118.824,4.955,4.955,0,0,1,1.236.647c.118.059.235.059.235.294A27.1,27.1,0,0,0,77.687,6.809Z" transform="translate(-25.677 -0.365)"/><path class="a" d="M0,1.5H14.532V4.854C13.767,5.03,3.177,5.089,0,4.971Z" transform="translate(0 -0.527)"/><path class="a" d="M0,31.912V28.5H14.532c.059,1.118,0,2.236.059,3.412Z" transform="translate(0 -11.642)"/><path class="a" d="M13.826,18.268H0V14.914c.765-.118,10.708-.177,13.826-.059Z" transform="translate(0 -5.998)"/></g><g transform="translate(104.078 1.172)"><path class="a" d="M176.9,20.515V16.867c.294-.294,1-.883,2.118-1.942,4.471-3.765,6.648-6.354,6.589-7.825a2.338,2.338,0,0,0-2.236-2.353c-1.353.118-2.118,1.059-2.236,2.706h-3.942c0-3.354,2.059-5.177,6.178-5.354,3.942.177,6,1.883,6.178,5.06,0,2.118-1.942,4.766-5.883,8.119a17.678,17.678,0,0,0-2.824,2.53h8.825v2.648H176.9Z" transform="translate(-176.9 -2.1)"/><path class="a" d="M216.749,11.713c-.118,5.942-2.295,9-6.472,9.119-4.06-.118-6.119-3.177-6.178-9.119.059-6.119,2.118-9.3,6.178-9.413C214.455,2.418,216.573,5.536,216.749,11.713Zm-4.06,0c0-4.471-.765-6.707-2.353-6.766-1.647.059-2.412,2.353-2.353,6.766-.059,4.413.706,6.589,2.353,6.707C211.925,18.3,212.69,16.067,212.69,11.713Z" transform="translate(-188.097 -2.182)"/><path class="a" d="M230.2,20.515V16.867c.294-.294,1-.883,2.118-1.942,4.471-3.765,6.648-6.354,6.589-7.825a2.338,2.338,0,0,0-2.236-2.353c-1.353.118-2.118,1.059-2.236,2.706h-3.942c0-3.354,2.059-5.177,6.178-5.354,3.942.177,6,1.883,6.178,5.06,0,2.118-1.942,4.766-5.883,8.119a17.678,17.678,0,0,0-2.824,2.53h8.825v2.648H230.2Z" transform="translate(-198.841 -2.1)"/><path class="a" d="M256.8,15.655h3.942c.059,1.706.824,2.589,2.236,2.706,1.412-.059,2.177-1,2.353-2.706-.059-2-1.53-3-4.354-2.942v-2.53c2.883,0,4.354-.941,4.354-2.824a2.182,2.182,0,0,0-2.236-2.412,2.338,2.338,0,0,0-2.118,2.412h-3.942c.118-3.236,2.177-4.942,6.06-5.06,3.765.412,5.825,1.942,6.06,4.53a4.359,4.359,0,0,1-3.471,4.471,4.785,4.785,0,0,1,3.53,4.883c-.412,2.824-2.53,4.413-6.354,4.648C258.8,20.833,256.74,19.068,256.8,15.655Z" transform="translate(-209.791 -2.182)"/></g></g></svg>