<svg xmlns="http://www.w3.org/2000/svg" xmlns:xlink="http://www.w3.org/1999/xlink" width="412.072" height="240" viewBox="0 0 412.072 240"><defs><style>.a{fill:#fff;}.b{clip-path:url(#a);}.c{fill:#1e1f24;}.d{fill:#23242a;}.e{fill:#27282f;}</style><clipPath id="a"><rect class="a" width="412.072" height="240" transform="translate(0)"/></clipPath></defs><g class="b"><g transform="translate(0 -0.167)"><path class="c" d="M2.479,0H409.594a2.6,2.6,0,0,1,2.479,2.7V237.3a2.6,2.6,0,0,1-2.479,2.7H2.479A2.6,2.6,0,0,1,0,237.3V2.7A2.6,2.6,0,0,1,2.479,0Z" transform="translate(0 0.167)"/><path class="d" d="M8.392,240.174,0,182.9,262.442,0h134.43a4,4,0,0,1,4,4V110.568C234.3,69.428,32.942,240.174,32.942,240.174Z" transform="translate(11.21)"/><path class="e" d="M4,240a4,4,0,0,1-4-4V4A4,4,0,0,1,4,0H408.073a4,4,0,0,1,4,4V14.49C142.5,28.093,23.547,240,23.547,240Z" transform="translate(0 0.167)"/></g></g></svg>