<svg xmlns="http://www.w3.org/2000/svg" xmlns:xlink="http://www.w3.org/1999/xlink" width="99" height="26" viewBox="0 0 99 26"><defs><style>.a{fill:#fff;stroke:#707070;}.b{clip-path:url(#a);}.c{fill:#51f0ca;}</style><clipPath id="a"><rect class="a" width="99" height="26" transform="translate(18 452)"/></clipPath></defs><g class="b" transform="translate(-18 -452)"><g transform="translate(264.372 -797.285)"><g transform="translate(-240.836 1250.196)"><path class="c" d="M-243.384,1260.077a7.738,7.738,0,0,1,.942,2.574,6.55,6.55,0,0,1,4.2-.64,6.012,6.012,0,0,1,2.623,1.276,6.163,6.163,0,0,0,1.737,1.023,7.342,7.342,0,0,0,3.154.067c2.939-.466,4.876-.325,6.507.427-.213.039-.438.089-.68.149a10.936,10.936,0,0,0-5.726-.2,9.624,9.624,0,0,1-2.614.086,4.68,4.68,0,0,1-1.9-.723c-.242-.169-.507-.371-.785-.571a7.768,7.768,0,0,0-2.108-1.09,6.254,6.254,0,0,0-2.168-.124,6.1,6.1,0,0,0-1.792.565,2.5,2.5,0,0,0-1,1q.065.372.118.6c.014-.021.367-1.1,1.192-1.155s1.111.883,1.228,1.4a6.747,6.747,0,0,1,.032,2.027c-.032.372-.064.755-.064,1.129a6.607,6.607,0,0,0,.213,1.742c.236.267.487.52.75.764a4.6,4.6,0,0,1-.575-2.509c0-.357.032-.731.061-1.1a7.079,7.079,0,0,0-.041-2.149,2.177,2.177,0,0,0-.935-1.528,4.457,4.457,0,0,1,2.513.6c.764.5,1.08,1.206,1.879,1.947a6.738,6.738,0,0,0,3.185,1.614,5.186,5.186,0,0,0,2.376-.33c.809-.261,2.276-.9,3.118-1.16a9.135,9.135,0,0,1,1.866-.351c-.773.351-1.817,1.2-1.791,1.841.026.66.35,1.081.175,1.72s-.532.951-.532,1.418c-2.9.776-5.295.609-7.1-.5a6.321,6.321,0,0,1-2.673-3.368l-.084-.27h-.413a6.817,6.817,0,0,0,2.967,3.974,7.486,7.486,0,0,0,4,1.017,13.23,13.23,0,0,0,3.375-.484c.058.323.132.333.37.794a1.95,1.95,0,0,1,.33,1.326,11.38,11.38,0,0,1-4.486.922,11.489,11.489,0,0,1-1.887-.158A11.8,11.8,0,0,1-243.384,1260.077Zm19.744,5.582a1.023,1.023,0,0,1,.674.129h0l.171.107a1.8,1.8,0,0,1,.763,1.2,1.82,1.82,0,0,1-.674,1.514.186.186,0,0,1-.136.056.192.192,0,0,1-.058,0h0l-3.745-1.153-.035-.014a.642.642,0,0,0-.127.391,1.747,1.747,0,0,0,.1.436,1.666,1.666,0,0,1,.041,1.165,2.96,2.96,0,0,1-.286.61.789.789,0,0,0-.046.979c.075.146.156.276.226.388a1.886,1.886,0,0,1,.4,1.274.193.193,0,0,1-.194.175h-.014a.184.184,0,0,1-.127-.062,2.051,2.051,0,0,0-.39-1.308c-.067-.121-.148-.259-.226-.414a.917.917,0,0,1,.046-1.064,3.2,3.2,0,0,0,.283-.656,1.861,1.861,0,0,0-.04-1.221,1.79,1.79,0,0,1-.1-.475.632.632,0,0,1,.046-.273,2.3,2.3,0,0,1,.749-.768,5.491,5.491,0,0,1,1.663-.8c.2-.051.387-.1.564-.132h0l.2-.034.14-.026h0Zm.217.362h-.1a6.076,6.076,0,0,0-.81.141,5.131,5.131,0,0,0-1.778.81c-.1.07-.191.144-.283.22h0l3.5,1.083h0a1.509,1.509,0,0,0,.483-1.151,1.449,1.449,0,0,0-.593-.931h0l-.133-.082a.628.628,0,0,0-.385-.09Zm-12.567-7.3a6.506,6.506,0,0,1-.919.437,7.3,7.3,0,0,1-4.567.207,3.439,3.439,0,0,1-.767,2.762,6.515,6.515,0,0,0-1.595-3.278,11.056,11.056,0,0,0,1.214-.128C-237.736,1257.969-236.357,1258.475-235.989,1258.724Zm.712.015a4.722,4.722,0,0,1-1.618,3.272,7.442,7.442,0,0,0-4.821,0,3.478,3.478,0,0,0,.62-2.211A7.236,7.236,0,0,0-235.277,1258.739Zm8.874-7.1a11.792,11.792,0,0,1,4.189,3.97l.192.314-4.647,2.734c-.023-.038-.047-.074-.07-.113a6.154,6.154,0,0,0-8.614-1.861A14.853,14.853,0,0,1-226.4,1251.644Zm-1.173-.571a15.657,15.657,0,0,0-4.326,1.73,16.032,16.032,0,0,0-5.376,5.172,22.57,22.57,0,0,0-5.394.354c-.105.018-.2.033-.318.045.087-.276.187-.55.295-.82A11.526,11.526,0,0,1-227.576,1251.073Z" transform="translate(243.836 -1249.922)"/><path class="c" d="M-56.873,1285.6a3.718,3.718,0,0,1,3.917,3.876,3.74,3.74,0,0,1-3.944,3.876,3.7,3.7,0,0,1-3.89-3.876A3.725,3.725,0,0,1-56.873,1285.6Zm14.865,12.157a3.718,3.718,0,0,1,3.917,3.876,3.739,3.739,0,0,1-3.944,3.876,3.7,3.7,0,0,1-3.89-3.876A3.725,3.725,0,0,1-42.008,1297.758Zm-6.524-12.157a2.623,2.623,0,0,1,2.323,1.175h0v-1.067h2.31v7.536h-2.31v-1.067a2.665,2.665,0,0,1-2.337,1.175c-1.837,0-3.309-1.513-3.309-3.89S-50.382,1285.6-48.532,1285.6Zm-20.082,12.157a3.551,3.551,0,0,1,3.755,3.755,5.84,5.84,0,0,1-.04.676h-5.227a1.4,1.4,0,0,0,1.432,1.445,1.228,1.228,0,0,0,1.2-.729h2.458a3.522,3.522,0,0,1-3.579,2.607,3.633,3.633,0,0,1-3.809-3.876A3.62,3.62,0,0,1-68.613,1297.758Zm-2.283-14.1a4.4,4.4,0,0,1,4.5,3.323h-2.539a2.089,2.089,0,0,0-1.985-1.216,2.422,2.422,0,0,0-2.391,2.729,2.422,2.422,0,0,0,2.391,2.728A2.089,2.089,0,0,0-68.937,1290H-66.4a4.391,4.391,0,0,1-4.5,3.309,4.6,4.6,0,0,1-4.768-4.822A4.606,4.606,0,0,1-70.9,1283.656Zm14.928,14.21,1.067,5.389,1.27-5.389h2.445l1.283,5.362,1.053-5.362h2.175l-2.039,7.537h-2.553l-1.189-4.889-1.229,4.889h-2.539l-2.053-7.537Zm-20.973-12.157v1.837l-3.2,3.8h3.268v1.9h-5.848v-1.837l3.133-3.8H-82.7v-1.9Zm-3.2,10.212,1.242,1.889,2.621,3.986v-5.875h2.31v9.482h-2.31l-3.863-5.848v5.848h-2.31v-9.482Zm48.286,1.864v2.445h-.635c-1.094,0-1.729.378-1.729,1.675h0v3.5h-2.31v-7.537h2.31v1.256a2.81,2.81,0,0,1,2.364-1.337Zm-30.481-14.534v9.995h-2.31v-9.995Zm22.756,0v5.524l2.283-3.066h2.85l-3.133,3.781,3.16,3.755h-2.863l-2.3-3.161v3.161h-2.31v-9.995Zm-21.054,12.778v1.837h1.513v1.918h-1.513v3.026c0,.446.189.635.7.635h.824v1.958h-1.175c-1.567,0-2.661-.662-2.661-2.62h0v-3h-.918v-1.918h.918v-1.837Zm32.529-.621v5.524l2.283-3.066h2.85l-3.133,3.782,3.161,3.755h-2.863l-2.3-3.161v3.161h-2.31v-9.995Zm-28.766-7.808c-.837,0-1.567.594-1.567,1.877s.7,1.877,1.54,1.877a1.65,1.65,0,0,0,1.594-1.877C-55.307,1288.194-56.063,1287.6-56.873,1287.6Zm14.865,12.157c-.837,0-1.567.594-1.567,1.878s.7,1.877,1.54,1.877a1.65,1.65,0,0,0,1.594-1.877C-40.441,1300.351-41.2,1299.757-42.008,1299.757Zm-5.848-12.143a1.678,1.678,0,0,0-1.648,1.85,1.7,1.7,0,0,0,1.648,1.877,1.683,1.683,0,0,0,1.648-1.864A1.683,1.683,0,0,0-47.856,1287.614Zm-20.784,11.995a1.429,1.429,0,0,0-1.472,1.3h2.89A1.3,1.3,0,0,0-68.64,1299.608Z" transform="translate(111.522 -1282.291)"/></g></g></g></svg>