<svg xmlns="http://www.w3.org/2000/svg" xmlns:xlink="http://www.w3.org/1999/xlink" width="113" height="26" viewBox="0 0 113 26"><defs><style>.a,.b,.f{fill:#fff;}.a{stroke:#707070;}.c{clip-path:url(#a);}.d{clip-path:url(#b);}.e{clip-path:url(#c);}.f,.h{fill-rule:evenodd;}.g{clip-path:url(#d);}.h{fill:#22f;}</style><clipPath id="a"><rect class="a" width="113" height="26" transform="translate(140 451)"/></clipPath><clipPath id="b"><rect class="b" width="143" height="26" transform="translate(0 0)"/></clipPath><clipPath id="c"><rect class="b" width="109.201" height="9.563"/></clipPath><clipPath id="d"><rect class="b" width="26" height="26" transform="translate(0 0)"/></clipPath></defs><g class="c" transform="translate(-140 -451)"><g class="d" transform="translate(143 451)"><g class="e" transform="translate(33.137 2.002)"><path class="f" d="M150.172,18.631H149l4.573-9.519h.676l4.573,9.519h-1.174l-3.734-7.782ZM167.033,17.2V9.112h1.061v9.519h-1.2l-6.748-7.45V14.69l-1.061,1.07V9.112h.625Zm2.292-7.014V9.112h9.018v1.072h-3.979v7.375L173.3,18.631V10.184Zm8.555,8.447h-1.174l4.575-9.519h.674l4.573,9.519h-1.174l-3.734-7.782Zm9.82-9.519,1.061,1.072v7.375h4.508l1.059,1.07v0H187.7Zm7.636,9.519V9.112H199a2.9,2.9,0,0,1,0,5.8h-.714l-1.054-1.065H199a1.838,1.838,0,0,0,0-3.676h-2.6v8.458ZM203.1,9.112h0l1.059,1.072v3.138h5.464V9.112l1.063,1.072v8.427l-1.063-1.072V14.4h-5.464v4.254L203.1,17.579Zm8.635,9.519,4.573-9.519h.676l4.573,9.519h-1.172l-3.739-7.782L212.9,18.631Z" transform="translate(-149 -9.087)"/></g><path class="f" d="M150.061,68.072,149,67v9.519h6.63v0l-1.061-1.07h-4.508Z" transform="translate(-115.863 -52.099)"/><path class="f" d="M183.089,76.519h1.163l3.707-7.78,3.705,7.78h1.161L188.291,67h-.669Z" transform="translate(-142.37 -52.099)"/><path class="f" d="M268.906,72.238a5.422,5.422,0,0,1,1.248.4,1.567,1.567,0,0,1,.669.565,1.708,1.708,0,0,1,.191.941,1.738,1.738,0,0,1-1.639,1.541,1.473,1.473,0,0,1-.171.009.686.686,0,0,1-.12-.007.43.43,0,0,1-.091.007,2.511,2.511,0,0,1-1.317-.38,2.051,2.051,0,0,1-.765-.987l-.029-.078-.894.438.024.062a2.672,2.672,0,0,0,1.072,1.381,3.628,3.628,0,0,0,1.873.523c.04,0,.082,0,.125,0h.056a3.631,3.631,0,0,0,1.543-.347A2.5,2.5,0,0,0,272.135,74a2.4,2.4,0,0,0-.645-1.764,4.335,4.335,0,0,0-2.135-.961,5.411,5.411,0,0,1-1.148-.36,1.464,1.464,0,0,1-.609-.5,1.562,1.562,0,0,1-.178-.638,1.53,1.53,0,0,1,1.457-1.557c.053,0,.107,0,.162,0s.093,0,.138,0a1.791,1.791,0,0,1,1.846,1.125l.031.076.89-.42-.024-.067a2.31,2.31,0,0,0-.963-1.21,3.3,3.3,0,0,0-1.688-.463l-.111,0h-.078a3.508,3.508,0,0,0-1.443.309,2.283,2.283,0,0,0-.99.863,2.416,2.416,0,0,0-.342,1.3,2.16,2.16,0,0,0,.616,1.606A4.132,4.132,0,0,0,268.906,72.238Z" transform="translate(-206.833 -52.301)"/><path class="f" d="M238.618,69.46c.022-1.612-1.392-2.46-3.051-2.46h-2.931v9.519h3.854a2.582,2.582,0,0,0,2.689-2.638,2.41,2.41,0,0,0-1.668-2.369A2.381,2.381,0,0,0,238.618,69.46Zm-4.949-1.494v7.586h2.738a1.663,1.663,0,0,0,1.712-1.784,1.876,1.876,0,0,0-2.093-1.75c-.047,0-1.052-.024-1.052-.024l-.923-.97s1.928,0,1.973,0a1.512,1.512,0,0,0,1.559-1.568c.02-1.128-.954-1.495-2.1-1.495Z" transform="translate(-180.897 -52.099)"/><g class="g"><path class="h" d="M22.056,25.8H3.742A3.742,3.742,0,0,1,0,22.056V3.742A3.742,3.742,0,0,1,3.742,0H22.056A3.742,3.742,0,0,1,25.8,3.742V22.056A3.742,3.742,0,0,1,22.056,25.8Z"/><path class="f" d="M11.2,41.522l9.072,4.4V44.4l-6.824-3.312,6.824-3.311V36.248L11.2,40.65Z" transform="translate(-8.709 -28.186)"/><path class="f" d="M64.009,36.247v1.527l6.824,3.311L64.009,44.4v1.527l9.072-4.4v-.872Z" transform="translate(-49.773 -28.186)"/></g></g></g></svg>