<svg xmlns="http://www.w3.org/2000/svg" width="305.12" height="63.475" viewBox="0 0 305.12 63.475"><defs><style>.a{fill:#fff;}</style></defs><path class="a" d="M12454.766-18131.875a7.477,7.477,0,0,1-3.42-3.516,13.071,13.071,0,0,1-1.187-5.826q0-6.111,3.041-8.7,2.562-2.18,7.488-2.211a13.681,13.681,0,0,1,5.635,1.092,7.535,7.535,0,0,1,4,4.383,16.151,16.151,0,0,1,.9,5.631,13.623,13.623,0,0,1-1.092,5.666,7.811,7.811,0,0,1-4.224,4,13.229,13.229,0,0,1-4.863.832A13.685,13.685,0,0,1,12454.766-18131.875Zm1.475-14.621a9.381,9.381,0,0,0-1.087,5.15q0,3.747,1.343,5.508a5.059,5.059,0,0,0,4.256,1.725,4.846,4.846,0,0,0,4.142-1.762c.886-1.168,1.328-2.986,1.328-5.437a9.829,9.829,0,0,0-1.086-5.119q-1.247-2.083-4.416-2.113A4.952,4.952,0,0,0,12456.24-18146.5Zm124.705,15.84-2.082-4.926h-8.1l-2.078,4.926h-5.314l8.835-21.342h5.215l8.831,21.342Zm-9.155-8.734h6.082l-3.041-7.457Zm-14.748,8.734a20.7,20.7,0,0,1-.484-3.041,8.154,8.154,0,0,0-.653-2.85,3.736,3.736,0,0,0-1.488-1.566,7.573,7.573,0,0,0-3.616-.639h-3.648v8.1h-4.543V-18152h10.434c2.986,0,5.063.379,6.237,1.15a5.172,5.172,0,0,1,1.872,2.033,5.9,5.9,0,0,1,.657,2.766,6.663,6.663,0,0,1-1.539,4.7,6.061,6.061,0,0,1-2.524,1.508,7.006,7.006,0,0,1,1.886.939,4.514,4.514,0,0,1,1.155,1.457,7.137,7.137,0,0,1,.557,1.471,12.817,12.817,0,0,1,.274,2.082,15.037,15.037,0,0,0,.511,3.232Zm-9.891-11.9h6.37a4.032,4.032,0,0,0,2.269-.479,2.776,2.776,0,0,0,1.027-2.465,2.346,2.346,0,0,0-1.538-2.494,5.623,5.623,0,0,0-1.758-.191h-6.37Zm-25.15,11.9v-11.137q.028-4.8.9-6.3a6.288,6.288,0,0,1,3.15-3.01,15.039,15.039,0,0,1,5.809-.895h7.392v3.809h-6.816a11.674,11.674,0,0,0-4.064.512c-1.191.488-1.812,1.574-1.854,3.26v1.154h12.734v3.8h-12.734v8.8Zm-9.666,0-8.7-15.648v15.648h-4.352V-18152h5.822l8.483,15.9v-15.9h4.319v21.342Zm-21.917,0V-18152h4.543v21.342Zm-46.721,0-2.082-4.926h-8.1l-2.077,4.926h-5.315l8.831-21.342h5.219l8.831,21.342Zm-9.155-8.734h6.082l-3.041-7.457Zm-29.245,8.734V-18152h9.055a16.07,16.07,0,0,1,5.246.672,7.186,7.186,0,0,1,4.58,4.574,17.024,17.024,0,0,1,.862,5.471,17.573,17.573,0,0,1-.831,5.443,6.9,6.9,0,0,1-2.753,3.867,7.448,7.448,0,0,1-2.671,1.041,26.267,26.267,0,0,1-4.434.273Zm4.543-3.809h4.512q2.979,0,4.127-1.311a6.26,6.26,0,0,0,1.138-2.338,11.573,11.573,0,0,0,.434-3.2,11.2,11.2,0,0,0-.512-3.457,5.382,5.382,0,0,0-1.347-2.334,5.657,5.657,0,0,0-3.84-1.086h-4.512Zm170.754-40.209a7.9,7.9,0,0,1-2.051-5.885,7.854,7.854,0,0,1,1.955-5.443,8.042,8.042,0,0,1,6.269-2.461q4.323,0,6.37,2.494a8.657,8.657,0,0,1,1.886,5.73,7.535,7.535,0,0,1-2.365,5.82,8.5,8.5,0,0,1-5.954,1.986A8.181,8.181,0,0,1,12580.594-18174.674Zm2.333-5.725a5.648,5.648,0,0,0,.644,2.977,3.554,3.554,0,0,0,3.261,1.727q3.807,0,3.808-4.768,0-4.67-3.84-4.74Q12582.929-18185.2,12582.927-18180.4Zm-208.223,5.725a7.893,7.893,0,0,1-2.046-5.885,7.851,7.851,0,0,1,1.95-5.443,8.059,8.059,0,0,1,6.273-2.461q4.315,0,6.365,2.494a8.66,8.66,0,0,1,1.891,5.73,7.522,7.522,0,0,1-2.37,5.82,8.494,8.494,0,0,1-5.95,1.986A8.19,8.19,0,0,1,12374.7-18174.674Zm2.338-5.725a5.651,5.651,0,0,0,.639,2.977,3.556,3.556,0,0,0,3.265,1.727q3.809,0,3.809-4.768,0-4.67-3.84-4.74Q12377.037-18185.2,12377.042-18180.4Zm264.381,7.744a11.238,11.238,0,0,1-3.022-.338,6.642,6.642,0,0,1-2.192-1.105,7.782,7.782,0,0,1-2.849-6.557,8.279,8.279,0,0,1,1.507-4.932,5.767,5.767,0,0,1,2.461-2.045,9.819,9.819,0,0,1,3.776-.607h6.018v3.328h-5.7a3.891,3.891,0,0,0-2.461.59,3.22,3.22,0,0,0-.867,2.191h9.026v3.328h-9.026a2.841,2.841,0,0,0,1,2.178,4.8,4.8,0,0,0,2.813.639h5.219v3.33Zm-25.214,0v-3.33h7.648c.936,0,1.575-.008,1.918-.031a1.172,1.172,0,0,0,1.15-1.311,1.308,1.308,0,0,0-.768-1.314,5.289,5.289,0,0,0-1.854-.191h-2.594a10.856,10.856,0,0,1-2.352-.193,4.161,4.161,0,0,1-1.521-.7,4.127,4.127,0,0,1-1.36-1.68,5.4,5.4,0,0,1-.493-2.287,4.526,4.526,0,0,1,1.694-3.713,5.741,5.741,0,0,1,3.552-.83h9.15v3.328h-7.584a6.651,6.651,0,0,0-1.662.123,1.17,1.17,0,0,0-.735,1.252,1.425,1.425,0,0,0,.7,1.277,4.82,4.82,0,0,0,2.078.256h2.529a6.422,6.422,0,0,1,3.84,1.023,3.948,3.948,0,0,1,1.571,3.393,5.4,5.4,0,0,1-.964,3.105,3.34,3.34,0,0,1-1.712,1.475,11.412,11.412,0,0,1-3.374.352Zm-12,0a11.1,11.1,0,0,1-2.817-.275,4.2,4.2,0,0,1-1.758-.977c-1.091-.977-1.635-2.57-1.635-4.768v-9.564h4.256v10.014a2.3,2.3,0,0,0,.562,1.648,1.991,1.991,0,0,0,1.521.592h4.032v-12.254h4.287v15.584Zm-32.931,0v-8.863a9.975,9.975,0,0,0-.109-1.781,1.9,1.9,0,0,0-.466-.908,3.421,3.421,0,0,0-2.434-.7h-3.483v12.256h-4.288V-18194h4.288v5.764h4.383a12.114,12.114,0,0,1,3.055.3,4.159,4.159,0,0,1,1.872,1.072q1.474,1.345,1.471,4.512v9.7Zm-25.757,0v-15.584h6.333a12.907,12.907,0,0,1,3.027.27,4.137,4.137,0,0,1,1.776.912,3.494,3.494,0,0,1,.99,1.6,10.136,10.136,0,0,1,.288,2.754v1.5h-4.128v-.83a3.352,3.352,0,0,0-.575-2.27,3.039,3.039,0,0,0-2.21-.607h-1.215v12.256Zm-9.187,0a11.263,11.263,0,0,1-3.022-.338,6.723,6.723,0,0,1-2.191-1.105,7.783,7.783,0,0,1-2.85-6.557,8.279,8.279,0,0,1,1.507-4.932,5.767,5.767,0,0,1,2.461-2.045,9.839,9.839,0,0,1,3.776-.607h6.019v3.328h-5.7a3.893,3.893,0,0,0-2.461.59,3.224,3.224,0,0,0-.867,2.191h9.027v3.328h-9.027a2.861,2.861,0,0,0,1,2.178,4.813,4.813,0,0,0,2.817.639h5.215v3.33Zm-14.844,0v-3.648a2.884,2.884,0,0,0-.484-1.969,2.637,2.637,0,0,0-1.886-.5h-2.913v6.115h-4.287V-18194h4.287v11.936l5.73-6.172h4.8l-6.082,6.172h1.155a3.427,3.427,0,0,1,3.1,1.316q.87,1.307.867,4.639v3.457Zm-18.689,0a11.592,11.592,0,0,1-3.744-.484,5.789,5.789,0,0,1-2.434-1.662,8.2,8.2,0,0,1-2.014-5.693q0-4.166,2.4-6.211a5.625,5.625,0,0,1,2.306-1.182,13.987,13.987,0,0,1,3.488-.352h5.854v3.328h-5.118c-1.73,0-2.922.383-3.584,1.15a4.926,4.926,0,0,0-.959,3.328,4.219,4.219,0,0,0,1.565,3.645,3.9,3.9,0,0,0,1.394.625,9.552,9.552,0,0,0,2.1.178h4.606v3.33Zm-20.191,0a25.7,25.7,0,0,1-3.36-.146,4.173,4.173,0,0,1-1.635-.594,4.36,4.36,0,0,1-1.886-3.867,5.3,5.3,0,0,1,.749-2.8,3.861,3.861,0,0,1,2-1.68,12.021,12.021,0,0,1,3.616-.383h5.251a2.872,2.872,0,0,0-.657-2.205,4.128,4.128,0,0,0-2.607-.576h-7.232v-3.328h7.232c1.3,0,2.2.027,2.689.076a8.787,8.787,0,0,1,1.5.307q3.555,1.342,3.36,6.434v8.768Zm-2.1-5.764a1.331,1.331,0,0,0-.434,1.061,1.134,1.134,0,0,0,.529,1.055,3.763,3.763,0,0,0,1.809.318h4.927v-2.816h-5.666A1.689,1.689,0,0,0,12480.514-18178.418Zm-12.689,5.764v-8.836h-8.255v8.836h-4.543V-18194h4.543v8.7h8.255v-8.7h4.512v21.348Zm-37.409,0V-18194h4.287v21.348Zm-13.022,0a25.812,25.812,0,0,1-3.361-.146,4.15,4.15,0,0,1-1.63-.594,4.355,4.355,0,0,1-1.891-3.867,5.267,5.267,0,0,1,.754-2.8,3.861,3.861,0,0,1,2-1.68,12.021,12.021,0,0,1,3.616-.383h5.246a2.872,2.872,0,0,0-.657-2.205,4.116,4.116,0,0,0-2.607-.576h-7.232v-3.328h7.232c1.3,0,2.2.027,2.689.076a8.693,8.693,0,0,1,1.5.307q3.555,1.342,3.361,6.434v8.768Zm-2.1-5.764a1.347,1.347,0,0,0-.434,1.061,1.142,1.142,0,0,0,.53,1.055,3.759,3.759,0,0,0,1.808.318h4.927v-2.816h-5.662A1.693,1.693,0,0,0,12415.3-18178.418Zm-22.994,5.764V-18194h4.292v5.764h3.776a9.3,9.3,0,0,1,4.063.766,6.347,6.347,0,0,1,3.1,3.234,9.243,9.243,0,0,1,.676,3.584q0,4.731-3.425,6.844a6.857,6.857,0,0,1-2.242.914,16.9,16.9,0,0,1-3.265.242Zm4.292-3.33h3.164a3.689,3.689,0,0,0,3.041-1.25,5.249,5.249,0,0,0,1.027-3.293q0-4.383-4.068-4.383h-3.164Zm-31.424,3.33V-18194h4.287v21.348Zm-13.251,0a16.43,16.43,0,0,1-3.918-.371,6.952,6.952,0,0,1-2.639-1.3q-3.363-2.587-3.361-8.926a13.5,13.5,0,0,1,1.6-6.881,7.1,7.1,0,0,1,3.232-2.945,12.993,12.993,0,0,1,5.311-.928h9.315v3.809h-8.8a5.737,5.737,0,0,0-4.128,1.252q-1.534,1.465-1.534,5.277a14.386,14.386,0,0,0,.4,3.521,5.431,5.431,0,0,0,1.1,2.332,3.453,3.453,0,0,0,1.681,1.023,9.3,9.3,0,0,0,2.644.324h4.128v-5.055h-5.954v-3.812h10.466v12.676Z" transform="translate(-12342.001 18194.002)"/></svg>